<svg xmlns="http://www.w3.org/2000/svg" width="164" height="260" viewBox="0 0 164 260" fill="none"><g id="Exterior" filter="url(#filter0_di_0_1)">
<rect x="15.9629" y="8.86871" width="131.115" height="228" rx="10.6425" fill="white" fill-opacity="0.75" />
<rect x="15.9925" y="8.89828" width="131.056" height="227.941" rx="10.6129" stroke="white" stroke-opacity="0.9" stroke-width="0.0591249" />
<path id="9:41 &#226;&#128;&#162;&#226;&#128;&#162;&#226;&#128;&#162;" d="M28.6379 21.655C28.7776 21.6561 28.9173 21.6827 29.057 21.7348C29.1966 21.7869 29.3241 21.8734 29.4394 21.9942C29.5547 22.114 29.6473 22.2775 29.7171 22.4848C29.787 22.6921 29.8219 22.9521 29.8219 23.2647C29.8219 23.5673 29.7931 23.8362 29.7354 24.0712C29.6789 24.3051 29.5968 24.5024 29.4893 24.6632C29.3829 24.8239 29.2532 24.9459 29.1002 25.029C28.9483 25.1122 28.7765 25.1537 28.5847 25.1537C28.394 25.1537 28.2238 25.116 28.0742 25.0407C27.9256 24.9642 27.8037 24.8583 27.7084 24.7231C27.6141 24.5867 27.5537 24.4287 27.5271 24.2491H27.9328C27.9694 24.4054 28.042 24.5346 28.1507 24.6366C28.2604 24.7375 28.4051 24.7879 28.5847 24.7879C28.8474 24.7879 29.0547 24.6732 29.2066 24.4437C29.3596 24.2142 29.4361 23.8899 29.4361 23.4709H29.4095C29.3474 23.564 29.2737 23.6444 29.1883 23.712C29.103 23.7796 29.0082 23.8317 28.904 23.8683C28.7998 23.9049 28.6889 23.9232 28.5714 23.9232C28.3763 23.9232 28.1972 23.875 28.0343 23.7785C27.8724 23.681 27.7427 23.5474 27.6452 23.3778C27.5487 23.207 27.5005 23.0119 27.5005 22.7924C27.5005 22.584 27.5471 22.3933 27.6402 22.2204C27.7344 22.0464 27.8663 21.9078 28.0359 21.8047C28.2067 21.7016 28.4073 21.6517 28.6379 21.655ZM28.6379 22.0209C28.4982 22.0209 28.3724 22.0558 28.2604 22.1256C28.1496 22.1944 28.0614 22.2875 27.996 22.405C27.9317 22.5214 27.8996 22.6505 27.8996 22.7924C27.8996 22.9343 27.9306 23.0635 27.9927 23.1799C28.0559 23.2952 28.1418 23.3872 28.2505 23.4559C28.3602 23.5236 28.4849 23.5574 28.6246 23.5574C28.7299 23.5574 28.828 23.5369 28.9189 23.4958C29.0098 23.4537 29.0891 23.3966 29.1567 23.3246C29.2255 23.2514 29.2792 23.1688 29.318 23.0768C29.3568 22.9837 29.3762 22.8867 29.3762 22.7858C29.3762 22.6528 29.3441 22.528 29.2798 22.4116C29.2166 22.2952 29.129 22.201 29.017 22.1289C28.9062 22.0569 28.7798 22.0209 28.6379 22.0209ZM30.7685 24.6715C30.6864 24.6715 30.6161 24.6421 30.5573 24.5834C30.4985 24.5246 30.4692 24.4542 30.4692 24.3722C30.4692 24.2901 30.4985 24.2197 30.5573 24.161C30.6161 24.1022 30.6864 24.0729 30.7685 24.0729C30.8505 24.0729 30.9209 24.1022 30.9797 24.161C31.0384 24.2197 31.0678 24.2901 31.0678 24.3722C31.0678 24.4265 31.0539 24.4764 31.0262 24.5218C30.9996 24.5673 30.9636 24.6039 30.9181 24.6316C30.8738 24.6582 30.8239 24.6715 30.7685 24.6715ZM30.7685 22.9487C30.6864 22.9487 30.6161 22.9194 30.5573 22.8606C30.4985 22.8019 30.4692 22.7315 30.4692 22.6494C30.4692 22.5674 30.4985 22.497 30.5573 22.4382C30.6161 22.3795 30.6864 22.3501 30.7685 22.3501C30.8505 22.3501 30.9209 22.3795 30.9797 22.4382C31.0384 22.497 31.0678 22.5674 31.0678 22.6494C31.0678 22.7037 31.0539 22.7536 31.0262 22.7991C30.9996 22.8445 30.9636 22.8811 30.9181 22.9088C30.8738 22.9354 30.8239 22.9487 30.7685 22.9487ZM31.6856 24.4088V24.0695L33.1822 21.7016H33.4283V22.2271H33.262L32.1312 24.0163V24.0429H34.1466V24.4088H31.6856ZM33.2886 25.1072V24.3057V24.1477V21.7016H33.681V25.1072H33.2886ZM35.9214 21.7016V25.1072H35.509V22.1339H35.489L34.6576 22.686V22.267L35.509 21.7016H35.9214ZM68.1565 24.4819C68.0223 24.4819 67.8998 24.4492 67.789 24.3838C67.6781 24.3173 67.5894 24.2286 67.5229 24.1178C67.4575 24.0069 67.4248 23.8844 67.4248 23.7503C67.4248 23.615 67.4575 23.4925 67.5229 23.3828C67.5894 23.2719 67.6781 23.1838 67.789 23.1184C67.8998 23.0518 68.0223 23.0186 68.1565 23.0186C68.2917 23.0186 68.4142 23.0518 68.524 23.1184C68.6348 23.1838 68.723 23.2719 68.7884 23.3828C68.8549 23.4925 68.8881 23.615 68.8881 23.7503C68.8881 23.8844 68.8549 24.0069 68.7884 24.1178C68.723 24.2286 68.6348 24.3173 68.524 24.3838C68.4142 24.4492 68.2917 24.4819 68.1565 24.4819ZM70.7905 24.4819C70.6563 24.4819 70.5338 24.4492 70.423 24.3838C70.3121 24.3173 70.2234 24.2286 70.1569 24.1178C70.0915 24.0069 70.0588 23.8844 70.0588 23.7503C70.0588 23.615 70.0915 23.4925 70.1569 23.3828C70.2234 23.2719 70.3121 23.1838 70.423 23.1184C70.5338 23.0518 70.6563 23.0186 70.7905 23.0186C70.9257 23.0186 71.0482 23.0518 71.158 23.1184C71.2688 23.1838 71.357 23.2719 71.4224 23.3828C71.4889 23.4925 71.5222 23.615 71.5222 23.7503C71.5222 23.8844 71.4889 24.0069 71.4224 24.1178C71.357 24.2286 71.2688 24.3173 71.158 24.3838C71.0482 24.4492 70.9257 24.4819 70.7905 24.4819ZM73.4245 24.4819C73.2904 24.4819 73.1679 24.4492 73.057 24.3838C72.9461 24.3173 72.8575 24.2286 72.7909 24.1178C72.7255 24.0069 72.6928 23.8844 72.6928 23.7503C72.6928 23.615 72.7255 23.4925 72.7909 23.3828C72.8575 23.2719 72.9461 23.1838 73.057 23.1184C73.1679 23.0518 73.2904 23.0186 73.4245 23.0186C73.5598 23.0186 73.6823 23.0518 73.792 23.1184C73.9029 23.1838 73.991 23.2719 74.0564 23.3828C74.1229 23.4925 74.1562 23.615 74.1562 23.7503C74.1562 23.8844 74.1229 24.0069 74.0564 24.1178C73.991 24.2286 73.9029 24.3173 73.792 24.3838C73.6823 24.4492 73.5598 24.4819 73.4245 24.4819Z" fill="#012232" />
<path id="Walls &#194;&#183; Dining living room" d="M28.6331 40.4485L27.3397 35.7186H27.9218L28.9103 39.5709H28.9564L29.9634 35.7186H30.6101L31.6171 39.5709H31.6633L32.6518 35.7186H33.2338L31.9404 40.4485H31.3492L30.3052 36.6793H30.2683L29.2244 40.4485H28.6331ZM34.5872 40.5317C34.3624 40.5317 34.1584 40.4893 33.9751 40.4047C33.7919 40.3184 33.6464 40.1945 33.5386 40.0328C33.4308 39.8696 33.377 39.6725 33.377 39.4416C33.377 39.2383 33.417 39.0736 33.4971 38.9473C33.5771 38.8195 33.6841 38.7195 33.8181 38.6471C33.952 38.5747 34.0999 38.5208 34.2615 38.4854C34.4247 38.4485 34.5887 38.4192 34.7535 38.3977C34.969 38.3699 35.1438 38.3491 35.2777 38.3353C35.4132 38.3199 35.5118 38.2945 35.5734 38.2591C35.6365 38.2237 35.668 38.1621 35.668 38.0743V38.0558C35.668 37.828 35.6057 37.6509 35.481 37.5246C35.3578 37.3984 35.1707 37.3352 34.9197 37.3352C34.6595 37.3352 34.4555 37.3922 34.3077 37.5062C34.1599 37.6201 34.056 37.7417 33.9959 37.8711L33.4786 37.6863C33.571 37.4707 33.6941 37.3029 33.8481 37.1828C34.0036 37.0612 34.173 36.9765 34.3562 36.9288C34.541 36.8795 34.7227 36.8549 34.9013 36.8549C35.0152 36.8549 35.1461 36.8687 35.2939 36.8964C35.4433 36.9226 35.5872 36.9773 35.7258 37.0604C35.8659 37.1436 35.9822 37.269 36.0745 37.4369C36.1669 37.6047 36.2131 37.8295 36.2131 38.1113V40.4485H35.668V39.9682H35.6403C35.6034 40.0451 35.5418 40.1275 35.4556 40.2153C35.3693 40.303 35.2546 40.3777 35.1114 40.4393C34.9683 40.5009 34.7935 40.5317 34.5872 40.5317ZM34.6703 40.0421C34.8859 40.0421 35.0676 39.9997 35.2154 39.915C35.3647 39.8304 35.4771 39.721 35.5526 39.5871C35.6296 39.4531 35.668 39.3122 35.668 39.1644V38.6656C35.645 38.6933 35.5941 38.7187 35.5156 38.7418C35.4386 38.7633 35.3493 38.7826 35.2477 38.7995C35.1476 38.8149 35.0499 38.8288 34.9544 38.8411C34.8605 38.8519 34.7843 38.8611 34.7257 38.8688C34.5841 38.8873 34.4517 38.9173 34.3285 38.9589C34.2069 38.9989 34.1083 39.0597 34.0329 39.1413C33.959 39.2214 33.922 39.3307 33.922 39.4693C33.922 39.6587 33.9921 39.8019 34.1322 39.8989C34.2738 39.9943 34.4532 40.0421 34.6703 40.0421ZM37.753 35.7186V40.4485H37.208V35.7186H37.753ZM39.2964 35.7186V40.4485H38.7513V35.7186H39.2964ZM42.8075 37.6955L42.3179 37.8341C42.2871 37.7525 42.2417 37.6732 42.1816 37.5962C42.1231 37.5177 42.043 37.453 41.9414 37.4022C41.8398 37.3514 41.7097 37.326 41.5511 37.326C41.334 37.326 41.1531 37.3761 41.0083 37.4761C40.8652 37.5747 40.7936 37.7002 40.7936 37.8526C40.7936 37.9881 40.8428 38.0951 40.9414 38.1736C41.0399 38.2521 41.1939 38.3176 41.4033 38.3699L41.9299 38.4993C42.247 38.5763 42.4834 38.694 42.6389 38.8526C42.7944 39.0097 42.8722 39.2122 42.8722 39.4601C42.8722 39.6633 42.8137 39.845 42.6966 40.0051C42.5812 40.1652 42.4195 40.2915 42.2116 40.3839C42.0038 40.4763 41.762 40.5225 41.4864 40.5225C41.1246 40.5225 40.8251 40.4439 40.588 40.2869C40.3509 40.1298 40.2008 39.9004 40.1376 39.5986L40.655 39.4693C40.7043 39.6602 40.7974 39.8034 40.9344 39.8989C41.073 39.9943 41.2539 40.0421 41.4772 40.0421C41.7312 40.0421 41.9329 39.9882 42.0823 39.8804C42.2332 39.7711 42.3086 39.6402 42.3086 39.4878C42.3086 39.3646 42.2655 39.2614 42.1793 39.1783C42.0931 39.0936 41.9607 39.0305 41.7821 38.9889L41.1908 38.8503C40.8659 38.7733 40.6273 38.654 40.4748 38.4923C40.3239 38.3291 40.2485 38.1251 40.2485 37.8803C40.2485 37.6801 40.3047 37.5031 40.4171 37.3491C40.531 37.1951 40.6858 37.0743 40.8813 36.9865C41.0784 36.8987 41.3017 36.8549 41.5511 36.8549C41.9022 36.8549 42.1778 36.9318 42.3779 37.0858C42.5796 37.2398 42.7228 37.443 42.8075 37.6955ZM45.9191 38.7949C45.8051 38.7949 45.7074 38.7541 45.6258 38.6725C45.5441 38.5909 45.5033 38.4931 45.5033 38.3792C45.5033 38.2652 45.5441 38.1675 45.6258 38.0859C45.7074 38.0043 45.8051 37.9635 45.9191 37.9635C46.033 37.9635 46.1308 38.0043 46.2124 38.0859C46.294 38.1675 46.3348 38.2652 46.3348 38.3792C46.3348 38.4546 46.3155 38.5239 46.2771 38.587C46.2401 38.6502 46.1901 38.701 46.1269 38.7395C46.0653 38.7764 45.9961 38.7949 45.9191 38.7949ZM50.6756 40.4485H49.216V35.7186H50.7403C51.1991 35.7186 51.5918 35.8132 51.9182 36.0026C52.2446 36.1905 52.4948 36.4607 52.6688 36.8133C52.8428 37.1643 52.9298 37.5847 52.9298 38.0743C52.9298 38.567 52.842 38.9912 52.6665 39.3469C52.4909 39.701 52.2354 39.9735 51.8997 40.1645C51.564 40.3539 51.156 40.4485 50.6756 40.4485ZM49.7887 39.9404H50.6387C51.0298 39.9404 51.3539 39.865 51.611 39.7141C51.8681 39.5632 52.0598 39.3484 52.1861 39.0697C52.3123 38.791 52.3755 38.4592 52.3755 38.0743C52.3755 37.6925 52.3131 37.3637 52.1884 37.0881C52.0637 36.811 51.8774 36.5985 51.6295 36.4507C51.3816 36.3013 51.0729 36.2267 50.7033 36.2267H49.7887V39.9404ZM53.8166 40.4485V36.9011H54.3617V40.4485H53.8166ZM54.0938 36.3098C53.9875 36.3098 53.8959 36.2736 53.8189 36.2013C53.7435 36.1289 53.7058 36.0419 53.7058 35.9403C53.7058 35.8386 53.7435 35.7517 53.8189 35.6793C53.8959 35.6069 53.9875 35.5707 54.0938 35.5707C54.2 35.5707 54.2909 35.6069 54.3663 35.6793C54.4433 35.7517 54.4818 35.8386 54.4818 35.9403C54.4818 36.0419 54.4433 36.1289 54.3663 36.2013C54.2909 36.2736 54.2 36.3098 54.0938 36.3098ZM55.9051 38.3145V40.4485H55.36V36.9011H55.8866V37.4553H55.9328C56.0159 37.2752 56.1422 37.1305 56.3115 37.0211C56.4809 36.9103 56.6996 36.8549 56.9675 36.8549C57.2077 36.8549 57.4178 36.9041 57.598 37.0027C57.7781 37.0997 57.9182 37.2475 58.0183 37.4461C58.1184 37.6432 58.1684 37.8926 58.1684 38.1944V40.4485H57.6234V38.2314C57.6234 37.9527 57.551 37.7356 57.4063 37.5801C57.2616 37.423 57.0629 37.3445 56.8104 37.3445C56.6364 37.3445 56.4809 37.3822 56.3439 37.4577C56.2084 37.5331 56.1014 37.6432 56.0229 37.7879C55.9443 37.9327 55.9051 38.1082 55.9051 38.3145ZM59.1644 40.4485V36.9011H59.7095V40.4485H59.1644ZM59.4416 36.3098C59.3353 36.3098 59.2437 36.2736 59.1668 36.2013C59.0913 36.1289 59.0536 36.0419 59.0536 35.9403C59.0536 35.8386 59.0913 35.7517 59.1668 35.6793C59.2437 35.6069 59.3353 35.5707 59.4416 35.5707C59.5478 35.5707 59.6387 35.6069 59.7141 35.6793C59.7911 35.7517 59.8296 35.8386 59.8296 35.9403C59.8296 36.0419 59.7911 36.1289 59.7141 36.2013C59.6387 36.2736 59.5478 36.3098 59.4416 36.3098ZM61.2529 38.3145V40.4485H60.7078V36.9011H61.2344V37.4553H61.2806C61.3637 37.2752 61.49 37.1305 61.6594 37.0211C61.8287 36.9103 62.0474 36.8549 62.3153 36.8549C62.5555 36.8549 62.7656 36.9041 62.9458 37.0027C63.1259 37.0997 63.266 37.2475 63.3661 37.4461C63.4662 37.6432 63.5162 37.8926 63.5162 38.1944V40.4485H62.9712V38.2314C62.9712 37.9527 62.8988 37.7356 62.7541 37.5801C62.6094 37.423 62.4107 37.3445 62.1582 37.3445C61.9842 37.3445 61.8287 37.3822 61.6917 37.4577C61.5562 37.5331 61.4492 37.6432 61.3707 37.7879C61.2921 37.9327 61.2529 38.1082 61.2529 38.3145ZM65.9442 41.8528C65.6809 41.8528 65.4546 41.8189 65.2652 41.7511C65.0758 41.6849 64.918 41.5972 64.7917 41.4879C64.667 41.3801 64.5677 41.2646 64.4938 41.1414L64.928 40.8366C64.9772 40.9012 65.0396 40.9751 65.115 41.0583C65.1905 41.143 65.2937 41.2161 65.4245 41.2777C65.5569 41.3408 65.7302 41.3724 65.9442 41.3724C66.2306 41.3724 66.4669 41.3031 66.6532 41.1645C66.8395 41.0259 66.9327 40.8088 66.9327 40.5132V39.7926H66.8865C66.8465 39.8573 66.7895 39.9374 66.7156 40.0328C66.6432 40.1267 66.5385 40.2107 66.4015 40.2846C66.266 40.3569 66.0828 40.3931 65.8518 40.3931C65.5654 40.3931 65.3083 40.3254 65.0804 40.1899C64.8541 40.0544 64.6747 39.8573 64.5423 39.5986C64.4114 39.34 64.346 39.0259 64.346 38.6563C64.346 38.293 64.4099 37.9765 64.5377 37.7071C64.6655 37.4361 64.8433 37.2267 65.0712 37.0789C65.299 36.9295 65.5623 36.8549 65.861 36.8549C66.092 36.8549 66.2752 36.8934 66.4107 36.9703C66.5477 37.0458 66.6524 37.132 66.7248 37.229C66.7987 37.3245 66.8557 37.403 66.8957 37.4646H66.9512V36.9011H67.4777V40.5502C67.4777 40.855 67.4084 41.1029 67.2699 41.2938C67.1328 41.4863 66.9481 41.6272 66.7156 41.7165C66.4846 41.8073 66.2275 41.8528 65.9442 41.8528ZM65.9257 39.9035C66.1443 39.9035 66.3291 39.8534 66.48 39.7534C66.6309 39.6533 66.7456 39.5093 66.8241 39.3215C66.9027 39.1336 66.9419 38.9088 66.9419 38.6471C66.9419 38.3915 66.9034 38.1659 66.8264 37.9704C66.7495 37.7748 66.6355 37.6216 66.4846 37.5108C66.3337 37.3999 66.1474 37.3445 65.9257 37.3445C65.6947 37.3445 65.5023 37.403 65.3483 37.52C65.1959 37.637 65.0812 37.7941 65.0042 37.9912C64.9287 38.1882 64.891 38.4069 64.891 38.6471C64.891 38.8934 64.9295 39.1113 65.0065 39.3007C65.085 39.4885 65.2005 39.6363 65.3529 39.7441C65.5069 39.8504 65.6978 39.9035 65.9257 39.9035ZM70.8497 35.7186V40.4485H70.3046V35.7186H70.8497ZM71.848 40.4485V36.9011H72.3931V40.4485H71.848ZM72.1252 36.3098C72.0189 36.3098 71.9273 36.2736 71.8503 36.2013C71.7749 36.1289 71.7372 36.0419 71.7372 35.9403C71.7372 35.8386 71.7749 35.7517 71.8503 35.6793C71.9273 35.6069 72.0189 35.5707 72.1252 35.5707C72.2314 35.5707 72.3222 35.6069 72.3977 35.6793C72.4747 35.7517 72.5132 35.8386 72.5132 35.9403C72.5132 36.0419 72.4747 36.1289 72.3977 36.2013C72.3222 36.2736 72.2314 36.3098 72.1252 36.3098ZM76.2922 36.9011L74.9804 40.4485H74.4261L73.1142 36.9011H73.7055L74.6847 39.728H74.7217L75.701 36.9011H76.2922ZM77.0116 40.4485V36.9011H77.5567V40.4485H77.0116ZM77.2888 36.3098C77.1825 36.3098 77.0909 36.2736 77.0139 36.2013C76.9385 36.1289 76.9008 36.0419 76.9008 35.9403C76.9008 35.8386 76.9385 35.7517 77.0139 35.6793C77.0909 35.6069 77.1825 35.5707 77.2888 35.5707C77.395 35.5707 77.4859 35.6069 77.5613 35.6793C77.6383 35.7517 77.6768 35.8386 77.6768 35.9403C77.6768 36.0419 77.6383 36.1289 77.5613 36.2013C77.4859 36.2736 77.395 36.3098 77.2888 36.3098ZM79.1001 38.3145V40.4485H78.555V36.9011H79.0816V37.4553H79.1278C79.2109 37.2752 79.3372 37.1305 79.5065 37.0211C79.6759 36.9103 79.8945 36.8549 80.1625 36.8549C80.4027 36.8549 80.6128 36.9041 80.793 37.0027C80.9731 37.0997 81.1132 37.2475 81.2133 37.4461C81.3134 37.6432 81.3634 37.8926 81.3634 38.1944V40.4485H80.8184V38.2314C80.8184 37.9527 80.746 37.7356 80.6013 37.5801C80.4565 37.423 80.2579 37.3445 80.0054 37.3445C79.8314 37.3445 79.6759 37.3822 79.5389 37.4577C79.4034 37.5331 79.2964 37.6432 79.2178 37.7879C79.1393 37.9327 79.1001 38.1082 79.1001 38.3145ZM83.7914 41.8528C83.5281 41.8528 83.3017 41.8189 83.1124 41.7511C82.923 41.6849 82.7651 41.5972 82.6389 41.4879C82.5142 41.3801 82.4149 41.2646 82.341 41.1414L82.7752 40.8366C82.8244 40.9012 82.8868 40.9751 82.9622 41.0583C83.0377 41.143 83.1408 41.2161 83.2717 41.2777C83.4041 41.3408 83.5773 41.3724 83.7914 41.3724C84.0778 41.3724 84.3141 41.3031 84.5004 41.1645C84.6867 41.0259 84.7799 40.8088 84.7799 40.5132V39.7926H84.7337C84.6936 39.8573 84.6367 39.9374 84.5628 40.0328C84.4904 40.1267 84.3857 40.2107 84.2487 40.2846C84.1132 40.3569 83.9299 40.3931 83.699 40.3931C83.4126 40.3931 83.1555 40.3254 82.9276 40.1899C82.7013 40.0544 82.5219 39.8573 82.3895 39.5986C82.2586 39.34 82.1931 39.0259 82.1931 38.6563C82.1931 38.293 82.257 37.9765 82.3848 37.7071C82.5126 37.4361 82.6905 37.2267 82.9184 37.0789C83.1462 36.9295 83.4095 36.8549 83.7082 36.8549C83.9392 36.8549 84.1224 36.8934 84.2579 36.9703C84.3949 37.0458 84.4996 37.132 84.572 37.229C84.6459 37.3245 84.7029 37.403 84.7429 37.4646H84.7983V36.9011H85.3249V40.5502C85.3249 40.855 85.2556 41.1029 85.1171 41.2938C84.98 41.4863 84.7953 41.6272 84.5628 41.7165C84.3318 41.8073 84.0747 41.8528 83.7914 41.8528ZM83.7729 39.9035C83.9915 39.9035 84.1763 39.8534 84.3272 39.7534C84.4781 39.6533 84.5928 39.5093 84.6713 39.3215C84.7498 39.1336 84.7891 38.9088 84.7891 38.6471C84.7891 38.3915 84.7506 38.1659 84.6736 37.9704C84.5966 37.7748 84.4827 37.6216 84.3318 37.5108C84.1809 37.3999 83.9946 37.3445 83.7729 37.3445C83.5419 37.3445 83.3495 37.403 83.1955 37.52C83.0431 37.637 82.9284 37.7941 82.8514 37.9912C82.7759 38.1882 82.7382 38.4069 82.7382 38.6471C82.7382 38.8934 82.7767 39.1113 82.8537 39.3007C82.9322 39.4885 83.0477 39.6363 83.2001 39.7441C83.3541 39.8504 83.545 39.9035 83.7729 39.9035ZM88.1518 40.4485V36.9011H88.6784V37.4369H88.7154C88.78 37.2613 88.8971 37.1189 89.0664 37.0096C89.2358 36.9003 89.4267 36.8456 89.6392 36.8456C89.6792 36.8456 89.7293 36.8464 89.7893 36.8479C89.8494 36.8495 89.8948 36.8518 89.9256 36.8549V37.4092C89.9071 37.4045 89.8648 37.3976 89.7986 37.3884C89.7339 37.3776 89.6654 37.3722 89.593 37.3722C89.4206 37.3722 89.2666 37.4084 89.1311 37.4808C88.9971 37.5516 88.8909 37.6501 88.8124 37.7764C88.7354 37.9011 88.6969 38.0435 88.6969 38.2036V40.4485H88.1518ZM91.9049 40.5225C91.5846 40.5225 91.3036 40.4462 91.0619 40.2938C90.8217 40.1414 90.6338 39.9281 90.4984 39.6541C90.3644 39.38 90.2974 39.0597 90.2974 38.6933C90.2974 38.3237 90.3644 38.0012 90.4984 37.7256C90.6338 37.45 90.8217 37.2359 91.0619 37.0835C91.3036 36.9311 91.5846 36.8549 91.9049 36.8549C92.2251 36.8549 92.5054 36.9311 92.7456 37.0835C92.9873 37.2359 93.1751 37.45 93.3091 37.7256C93.4446 38.0012 93.5123 38.3237 93.5123 38.6933C93.5123 39.0597 93.4446 39.38 93.3091 39.6541C93.1751 39.9281 92.9873 40.1414 92.7456 40.2938C92.5054 40.4462 92.2251 40.5225 91.9049 40.5225ZM91.9049 40.0328C92.1482 40.0328 92.3483 39.9705 92.5054 39.8458C92.6624 39.721 92.7787 39.5571 92.8541 39.3538C92.9296 39.1506 92.9673 38.9304 92.9673 38.6933C92.9673 38.4562 92.9296 38.2352 92.8541 38.0304C92.7787 37.8256 92.6624 37.6601 92.5054 37.5339C92.3483 37.4076 92.1482 37.3445 91.9049 37.3445C91.6616 37.3445 91.4614 37.4076 91.3044 37.5339C91.1473 37.6601 91.0311 37.8256 90.9556 38.0304C90.8802 38.2352 90.8425 38.4562 90.8425 38.6933C90.8425 38.9304 90.8802 39.1506 90.9556 39.3538C91.0311 39.5571 91.1473 39.721 91.3044 39.8458C91.4614 39.9705 91.6616 40.0328 91.9049 40.0328ZM95.7855 40.5225C95.4653 40.5225 95.1843 40.4462 94.9425 40.2938C94.7023 40.1414 94.5145 39.9281 94.379 39.6541C94.2451 39.38 94.1781 39.0597 94.1781 38.6933C94.1781 38.3237 94.2451 38.0012 94.379 37.7256C94.5145 37.45 94.7023 37.2359 94.9425 37.0835C95.1843 36.9311 95.4653 36.8549 95.7855 36.8549C96.1058 36.8549 96.386 36.9311 96.6262 37.0835C96.868 37.2359 97.0558 37.45 97.1898 37.7256C97.3252 38.0012 97.393 38.3237 97.393 38.6933C97.393 39.0597 97.3252 39.38 97.1898 39.6541C97.0558 39.9281 96.868 40.1414 96.6262 40.2938C96.386 40.4462 96.1058 40.5225 95.7855 40.5225ZM95.7855 40.0328C96.0288 40.0328 96.229 39.9705 96.386 39.8458C96.5431 39.721 96.6593 39.5571 96.7348 39.3538C96.8102 39.1506 96.8479 38.9304 96.8479 38.6933C96.8479 38.4562 96.8102 38.2352 96.7348 38.0304C96.6593 37.8256 96.5431 37.6601 96.386 37.5339C96.229 37.4076 96.0288 37.3445 95.7855 37.3445C95.5423 37.3445 95.3421 37.4076 95.185 37.5339C95.028 37.6601 94.9117 37.8256 94.8363 38.0304C94.7609 38.2352 94.7231 38.4562 94.7231 38.6933C94.7231 38.9304 94.7609 39.1506 94.8363 39.3538C94.9117 39.5571 95.028 39.721 95.185 39.8458C95.3421 39.9705 95.5423 40.0328 95.7855 40.0328ZM98.225 40.4485V36.9011H98.7516V37.4553H98.7978C98.8717 37.266 98.991 37.1189 99.1558 37.0142C99.3205 36.908 99.5184 36.8549 99.7493 36.8549C99.9834 36.8549 100.178 36.908 100.334 37.0142C100.491 37.1189 100.613 37.266 100.701 37.4553H100.738C100.829 37.2721 100.965 37.1266 101.147 37.0188C101.328 36.9095 101.546 36.8549 101.8 36.8549C102.117 36.8549 102.377 36.9542 102.579 37.1528C102.78 37.3499 102.881 37.657 102.881 38.0743V40.4485H102.336V38.0743C102.336 37.8126 102.264 37.6255 102.121 37.5131C101.978 37.4007 101.809 37.3445 101.615 37.3445C101.366 37.3445 101.173 37.4199 101.036 37.5708C100.899 37.7202 100.83 37.9096 100.83 38.139V40.4485H100.276V38.0189C100.276 37.8172 100.21 37.6547 100.08 37.5316C99.9487 37.4068 99.7801 37.3445 99.5738 37.3445C99.4322 37.3445 99.2997 37.3822 99.1766 37.4577C99.0549 37.5331 98.9564 37.6378 98.8809 37.7718C98.807 37.9042 98.7701 38.0574 98.7701 38.2314V40.4485H98.225Z" fill="#012232" />
<path id="Condition assessment" d="M31.2999 53.5199H30.7637C30.732 53.3657 30.6766 53.2302 30.5973 53.1135C30.5195 52.9968 30.4244 52.8988 30.3119 52.8195C30.201 52.7388 30.0777 52.6783 29.9423 52.6379C29.8068 52.5976 29.6656 52.5774 29.5186 52.5774C29.2505 52.5774 29.0077 52.6451 28.7901 52.7806C28.5739 52.9161 28.4017 53.1157 28.2734 53.3794C28.1466 53.6431 28.0832 53.9667 28.0832 54.35C28.0832 54.7334 28.1466 55.0569 28.2734 55.3206C28.4017 55.5844 28.5739 55.784 28.7901 55.9195C29.0077 56.0549 29.2505 56.1227 29.5186 56.1227C29.6656 56.1227 29.8068 56.1025 29.9423 56.0621C30.0777 56.0218 30.201 55.962 30.3119 55.8827C30.4244 55.802 30.5195 55.7033 30.5973 55.5865C30.6766 55.4684 30.732 55.3329 30.7637 55.1801H31.2999C31.2595 55.4064 31.186 55.6089 31.0794 55.7876C30.9727 55.9663 30.8401 56.1183 30.6816 56.2437C30.5231 56.3677 30.3451 56.4621 30.1476 56.5269C29.9516 56.5918 29.742 56.6242 29.5186 56.6242C29.141 56.6242 28.8052 56.532 28.5112 56.3475C28.2172 56.163 27.9859 55.9007 27.8173 55.5606C27.6487 55.2205 27.5643 54.817 27.5643 54.35C27.5643 53.8831 27.6487 53.4796 27.8173 53.1394C27.9859 52.7993 28.2172 52.537 28.5112 52.3526C28.8052 52.1681 29.141 52.0759 29.5186 52.0759C29.742 52.0759 29.9516 52.1083 30.1476 52.1731C30.3451 52.238 30.5231 52.3331 30.6816 52.4585C30.8401 52.5824 30.9727 52.7337 31.0794 52.9125C31.186 53.0897 31.2595 53.2922 31.2999 53.5199ZM33.4459 56.6328C33.1462 56.6328 32.8832 56.5615 32.6569 56.4188C32.4321 56.2761 32.2563 56.0765 32.1294 55.82C32.0041 55.5635 31.9414 55.2637 31.9414 54.9207C31.9414 54.5748 32.0041 54.2729 32.1294 54.0149C32.2563 53.757 32.4321 53.5567 32.6569 53.414C32.8832 53.2713 33.1462 53.2 33.4459 53.2C33.7457 53.2 34.008 53.2713 34.2328 53.414C34.4591 53.5567 34.6349 53.757 34.7603 54.0149C34.8871 54.2729 34.9505 54.5748 34.9505 54.9207C34.9505 55.2637 34.8871 55.5635 34.7603 55.82C34.6349 56.0765 34.4591 56.2761 34.2328 56.4188C34.008 56.5615 33.7457 56.6328 33.4459 56.6328ZM33.4459 56.1745C33.6736 56.1745 33.861 56.1162 34.008 55.9994C34.155 55.8827 34.2638 55.7292 34.3344 55.539C34.405 55.3488 34.4404 55.1427 34.4404 54.9207C34.4404 54.6988 34.405 54.492 34.3344 54.3003C34.2638 54.1086 34.155 53.9537 34.008 53.8355C33.861 53.7173 33.6736 53.6583 33.4459 53.6583C33.2182 53.6583 33.0309 53.7173 32.8839 53.8355C32.7369 53.9537 32.6281 54.1086 32.5575 54.3003C32.4868 54.492 32.4515 54.6988 32.4515 54.9207C32.4515 55.1427 32.4868 55.3488 32.5575 55.539C32.6281 55.7292 32.7369 55.8827 32.8839 55.9994C33.0309 56.1162 33.2182 56.1745 33.4459 56.1745ZM36.2395 54.5662V56.5637H35.7293V53.2432H36.2222V53.762H36.2654C36.3432 53.5934 36.4614 53.4579 36.6199 53.3556C36.7785 53.2518 36.9831 53.2 37.2339 53.2C37.4587 53.2 37.6554 53.2461 37.824 53.3383C37.9927 53.4291 38.1238 53.5675 38.2175 53.7534C38.3112 53.9378 38.358 54.1713 38.358 54.4538V56.5637H37.8478V54.4884C37.8478 54.2275 37.7801 54.0243 37.6446 53.8788C37.5091 53.7318 37.3232 53.6583 37.0869 53.6583C36.924 53.6583 36.7785 53.6936 36.6502 53.7642C36.5234 53.8348 36.4232 53.9378 36.3497 54.0733C36.2762 54.2088 36.2395 54.3731 36.2395 54.5662ZM40.5441 56.6328C40.2674 56.6328 40.0231 56.5629 39.8112 56.4231C39.5994 56.2819 39.4336 56.083 39.314 55.8265C39.1944 55.5685 39.1346 55.2637 39.1346 54.9121C39.1346 54.5633 39.1944 54.2607 39.314 54.0041C39.4336 53.7476 39.6001 53.5495 39.8134 53.4097C40.0267 53.2699 40.2731 53.2 40.5527 53.2C40.7689 53.2 40.9397 53.236 41.0651 53.3081C41.1919 53.3787 41.2884 53.4594 41.3547 53.5502C41.4225 53.6395 41.4751 53.713 41.5125 53.7707H41.5558V52.1364H42.0659V56.5637H41.5731V56.0535H41.5125C41.4751 56.114 41.4217 56.1904 41.3526 56.2826C41.2834 56.3734 41.1847 56.4549 41.0564 56.5269C40.9281 56.5975 40.7574 56.6328 40.5441 56.6328ZM40.6132 56.1745C40.8179 56.1745 40.9908 56.1212 41.1321 56.0146C41.2733 55.9065 41.3807 55.7573 41.4542 55.5671C41.5277 55.3754 41.5644 55.1542 41.5644 54.9034C41.5644 54.6555 41.5284 54.4387 41.4563 54.2527C41.3843 54.0654 41.2776 53.9198 41.1364 53.8161C40.9952 53.7109 40.8208 53.6583 40.6132 53.6583C40.3971 53.6583 40.2169 53.7137 40.0728 53.8247C39.9301 53.9342 39.8228 54.0834 39.7507 54.2722C39.6801 54.4596 39.6448 54.67 39.6448 54.9034C39.6448 55.1398 39.6808 55.3545 39.7529 55.5476C39.8264 55.7393 39.9345 55.8921 40.0771 56.0059C40.2212 56.1183 40.4 56.1745 40.6132 56.1745ZM43.0712 56.5637V53.2432H43.5813V56.5637H43.0712ZM43.3306 52.6898C43.2311 52.6898 43.1454 52.6559 43.0733 52.5882C43.0027 52.5205 42.9674 52.439 42.9674 52.3439C42.9674 52.2488 43.0027 52.1674 43.0733 52.0996C43.1454 52.0319 43.2311 51.998 43.3306 51.998C43.43 51.998 43.515 52.0319 43.5857 52.0996C43.6577 52.1674 43.6937 52.2488 43.6937 52.3439C43.6937 52.439 43.6577 52.5205 43.5857 52.5882C43.515 52.6559 43.43 52.6898 43.3306 52.6898ZM45.9598 53.2432V53.6756H44.2391V53.2432H45.9598ZM44.7406 52.4477H45.2508V55.6125C45.2508 55.7566 45.2717 55.8647 45.3134 55.9368C45.3567 56.0074 45.4114 56.0549 45.4777 56.0794C45.5455 56.1025 45.6168 56.114 45.6918 56.114C45.748 56.114 45.7941 56.1111 45.8301 56.1054C45.8661 56.0982 45.895 56.0924 45.9166 56.0881L46.0203 56.5464C45.9858 56.5593 45.9375 56.5723 45.8755 56.5853C45.8135 56.5997 45.735 56.6069 45.6399 56.6069C45.4958 56.6069 45.3545 56.5759 45.2162 56.5139C45.0793 56.452 44.9654 56.3576 44.8746 56.2307C44.7853 56.1039 44.7406 55.944 44.7406 55.7508V52.4477ZM46.7272 56.5637V53.2432H47.2374V56.5637H46.7272ZM46.9866 52.6898C46.8872 52.6898 46.8015 52.6559 46.7294 52.5882C46.6588 52.5205 46.6235 52.439 46.6235 52.3439C46.6235 52.2488 46.6588 52.1674 46.7294 52.0996C46.8015 52.0319 46.8872 51.998 46.9866 51.998C47.0861 51.998 47.1711 52.0319 47.2417 52.0996C47.3138 52.1674 47.3498 52.2488 47.3498 52.3439C47.3498 52.439 47.3138 52.5205 47.2417 52.5882C47.1711 52.6559 47.0861 52.6898 46.9866 52.6898ZM49.5208 56.6328C49.221 56.6328 48.958 56.5615 48.7317 56.4188C48.5069 56.2761 48.3311 56.0765 48.2043 55.82C48.0789 55.5635 48.0162 55.2637 48.0162 54.9207C48.0162 54.5748 48.0789 54.2729 48.2043 54.0149C48.3311 53.757 48.5069 53.5567 48.7317 53.414C48.958 53.2713 49.221 53.2 49.5208 53.2C49.8205 53.2 50.0828 53.2713 50.3076 53.414C50.5339 53.5567 50.7097 53.757 50.8351 54.0149C50.9619 54.2729 51.0253 54.5748 51.0253 54.9207C51.0253 55.2637 50.9619 55.5635 50.8351 55.82C50.7097 56.0765 50.5339 56.2761 50.3076 56.4188C50.0828 56.5615 49.8205 56.6328 49.5208 56.6328ZM49.5208 56.1745C49.7485 56.1745 49.9358 56.1162 50.0828 55.9994C50.2298 55.8827 50.3386 55.7292 50.4092 55.539C50.4799 55.3488 50.5152 55.1427 50.5152 54.9207C50.5152 54.6988 50.4799 54.492 50.4092 54.3003C50.3386 54.1086 50.2298 53.9537 50.0828 53.8355C49.9358 53.7173 49.7485 53.6583 49.5208 53.6583C49.2931 53.6583 49.1057 53.7173 48.9587 53.8355C48.8117 53.9537 48.7029 54.1086 48.6323 54.3003C48.5617 54.492 48.5264 54.6988 48.5264 54.9207C48.5264 55.1427 48.5617 55.3488 48.6323 55.539C48.7029 55.7292 48.8117 55.8827 48.9587 55.9994C49.1057 56.1162 49.2931 56.1745 49.5208 56.1745ZM52.3143 54.5662V56.5637H51.8041V53.2432H52.297V53.762H52.3402C52.4181 53.5934 52.5362 53.4579 52.6948 53.3556C52.8533 53.2518 53.0579 53.2 53.3087 53.2C53.5335 53.2 53.7302 53.2461 53.8989 53.3383C54.0675 53.4291 54.1986 53.5675 54.2923 53.7534C54.386 53.9378 54.4328 54.1713 54.4328 54.4538V56.5637H53.9226V54.4884C53.9226 54.2275 53.8549 54.0243 53.7194 53.8788C53.584 53.7318 53.3981 53.6583 53.1617 53.6583C52.9988 53.6583 52.8533 53.6936 52.725 53.7642C52.5982 53.8348 52.498 53.9378 52.4245 54.0733C52.351 54.2088 52.3143 54.3731 52.3143 54.5662ZM58.0543 56.6415C57.8439 56.6415 57.6529 56.6019 57.4814 56.5226C57.3099 56.4419 57.1737 56.3259 57.0729 56.1745C56.972 56.0218 56.9215 55.8373 56.9215 55.6211C56.9215 55.4309 56.959 55.2767 57.0339 55.1585C57.1089 55.0389 57.209 54.9452 57.3344 54.8775C57.4598 54.8098 57.5982 54.7593 57.7495 54.7262C57.9023 54.6916 58.0557 54.6642 58.2099 54.644C58.4117 54.6181 58.5753 54.5986 58.7007 54.5857C58.8275 54.5712 58.9197 54.5475 58.9774 54.5143C59.0365 54.4812 59.066 54.4235 59.066 54.3414V54.3241C59.066 54.1108 59.0076 53.9451 58.8909 53.8269C58.7756 53.7087 58.6005 53.6496 58.3656 53.6496C58.122 53.6496 57.9311 53.7029 57.7927 53.8096C57.6544 53.9162 57.5571 54.0301 57.5009 54.1511L57.0167 53.9782C57.1031 53.7764 57.2184 53.6193 57.3625 53.5069C57.5081 53.3931 57.6666 53.3138 57.8381 53.2691C58.0111 53.223 58.1811 53.2 58.3483 53.2C58.4549 53.2 58.5774 53.2129 58.7158 53.2389C58.8556 53.2634 58.9903 53.3145 59.12 53.3924C59.2512 53.4702 59.36 53.5876 59.4465 53.7447C59.5329 53.9018 59.5762 54.1122 59.5762 54.376V56.5637H59.066V56.114H59.0401C59.0055 56.1861 58.9478 56.2632 58.8671 56.3453C58.7864 56.4275 58.679 56.4974 58.545 56.555C58.411 56.6127 58.2474 56.6415 58.0543 56.6415ZM58.1321 56.1832C58.3339 56.1832 58.5039 56.1436 58.6423 56.0643C58.7821 55.985 58.8873 55.8827 58.9579 55.7573C59.03 55.6319 59.066 55.5001 59.066 55.3617V54.8948C59.0444 54.9207 58.9968 54.9445 58.9233 54.9661C58.8513 54.9863 58.7677 55.0043 58.6726 55.0202C58.5789 55.0346 58.4874 55.0475 58.398 55.0591C58.3101 55.0692 58.2388 55.0778 58.184 55.085C58.0514 55.1023 57.9275 55.1304 57.8122 55.1693C57.6983 55.2068 57.6061 55.2637 57.5355 55.3401C57.4663 55.415 57.4317 55.5174 57.4317 55.6471C57.4317 55.8243 57.4973 55.9584 57.6284 56.0492C57.761 56.1385 57.9289 56.1832 58.1321 56.1832ZM62.8593 53.9868L62.401 54.1166C62.3722 54.0402 62.3297 53.9659 62.2735 53.8939C62.2187 53.8204 62.1438 53.7599 62.0487 53.7123C61.9536 53.6647 61.8318 53.641 61.6833 53.641C61.4801 53.641 61.3108 53.6878 61.1753 53.7815C61.0413 53.8737 60.9743 53.9912 60.9743 54.1338C60.9743 54.2607 61.0204 54.3608 61.1126 54.4343C61.2049 54.5078 61.349 54.5691 61.545 54.6181L62.0379 54.7391C62.3347 54.8112 62.556 54.9214 62.7015 55.0699C62.8471 55.2169 62.9199 55.4064 62.9199 55.6384C62.9199 55.8287 62.8651 55.9987 62.7556 56.1486C62.6475 56.2985 62.4962 56.4167 62.3016 56.5031C62.107 56.5896 61.8808 56.6328 61.6228 56.6328C61.2841 56.6328 61.0038 56.5593 60.7819 56.4123C60.5599 56.2653 60.4194 56.0506 60.3603 55.7681L60.8446 55.6471C60.8907 55.8258 60.9779 55.9598 61.1062 56.0492C61.2359 56.1385 61.4052 56.1832 61.6142 56.1832C61.852 56.1832 62.0408 56.1327 62.1805 56.0319C62.3218 55.9295 62.3924 55.807 62.3924 55.6644C62.3924 55.5491 62.352 55.4525 62.2713 55.3747C62.1906 55.2954 62.0667 55.2363 61.8995 55.1974L61.3461 55.0677C61.042 54.9957 60.8186 54.884 60.676 54.7327C60.5347 54.5799 60.4641 54.3889 60.4641 54.1598C60.4641 53.9724 60.5167 53.8067 60.6219 53.6626C60.7286 53.5185 60.8734 53.4053 61.0564 53.3232C61.2409 53.241 61.4499 53.2 61.6833 53.2C62.0119 53.2 62.2699 53.272 62.4572 53.4161C62.646 53.5603 62.7801 53.7505 62.8593 53.9868ZM66.0398 53.9868L65.5815 54.1166C65.5527 54.0402 65.5102 53.9659 65.454 53.8939C65.3992 53.8204 65.3243 53.7599 65.2292 53.7123C65.134 53.6647 65.0123 53.641 64.8638 53.641C64.6606 53.641 64.4913 53.6878 64.3558 53.7815C64.2218 53.8737 64.1548 53.9912 64.1548 54.1338C64.1548 54.2607 64.2009 54.3608 64.2931 54.4343C64.3854 54.5078 64.5295 54.5691 64.7255 54.6181L65.2184 54.7391C65.5152 54.8112 65.7365 54.9214 65.882 55.0699C66.0276 55.2169 66.1003 55.4064 66.1003 55.6384C66.1003 55.8287 66.0456 55.9987 65.9361 56.1486C65.828 56.2985 65.6766 56.4167 65.4821 56.5031C65.2875 56.5896 65.0613 56.6328 64.8033 56.6328C64.4646 56.6328 64.1843 56.5593 63.9624 56.4123C63.7404 56.2653 63.5999 56.0506 63.5408 55.7681L64.0251 55.6471C64.0712 55.8258 64.1584 55.9598 64.2866 56.0492C64.4163 56.1385 64.5857 56.1832 64.7946 56.1832C65.0324 56.1832 65.2212 56.1327 65.361 56.0319C65.5023 55.9295 65.5729 55.807 65.5729 55.6644C65.5729 55.5491 65.5325 55.4525 65.4518 55.3747C65.3711 55.2954 65.2472 55.2363 65.08 55.1974L64.5266 55.0677C64.2225 54.9957 63.9991 54.884 63.8564 54.7327C63.7152 54.5799 63.6446 54.3889 63.6446 54.1598C63.6446 53.9724 63.6972 53.8067 63.8024 53.6626C63.909 53.5185 64.0539 53.4053 64.2369 53.3232C64.4214 53.241 64.6304 53.2 64.8638 53.2C65.1924 53.2 65.4504 53.272 65.6377 53.4161C65.8265 53.5603 65.9606 53.7505 66.0398 53.9868ZM68.2605 56.6328C67.9405 56.6328 67.6646 56.5622 67.4325 56.421C67.2019 56.2783 67.024 56.0794 66.8986 55.8243C66.7746 55.5678 66.7127 55.2695 66.7127 54.9294C66.7127 54.5893 66.7746 54.2895 66.8986 54.0301C67.024 53.7692 67.1983 53.566 67.4217 53.4205C67.6465 53.2735 67.9088 53.2 68.2086 53.2C68.3815 53.2 68.5523 53.2288 68.7209 53.2864C68.8896 53.3441 69.043 53.4378 69.1814 53.5675C69.3197 53.6957 69.43 53.8658 69.5121 54.0776C69.5943 54.2895 69.6354 54.5503 69.6354 54.8602V55.0764H67.0758V54.6354H69.1165C69.1165 54.448 69.0791 54.2808 69.0041 54.1338C68.9306 53.9868 68.8254 53.8708 68.6885 53.7858C68.553 53.7008 68.3931 53.6583 68.2086 53.6583C68.0054 53.6583 67.8296 53.7087 67.6811 53.8096C67.5341 53.909 67.421 54.0387 67.3417 54.1987C67.2625 54.3587 67.2228 54.5302 67.2228 54.7132V55.0072C67.2228 55.258 67.2661 55.4705 67.3525 55.6449C67.4405 55.8179 67.5622 55.9497 67.7179 56.0405C67.8735 56.1299 68.0544 56.1745 68.2605 56.1745C68.3945 56.1745 68.5156 56.1558 68.6237 56.1183C68.7332 56.0794 68.8276 56.0218 68.9069 55.9454C68.9861 55.8676 69.0474 55.771 69.0906 55.6557L69.5835 55.7941C69.5316 55.9613 69.4444 56.1082 69.3219 56.2351C69.1994 56.3605 69.0481 56.4585 68.8679 56.5291C68.6878 56.5982 68.4853 56.6328 68.2605 56.6328ZM72.7634 53.9868L72.3051 54.1166C72.2763 54.0402 72.2338 53.9659 72.1776 53.8939C72.1228 53.8204 72.0479 53.7599 71.9528 53.7123C71.8576 53.6647 71.7359 53.641 71.5874 53.641C71.3842 53.641 71.2149 53.6878 71.0794 53.7815C70.9454 53.8737 70.8784 53.9912 70.8784 54.1338C70.8784 54.2607 70.9245 54.3608 71.0167 54.4343C71.109 54.5078 71.2531 54.5691 71.4491 54.6181L71.942 54.7391C72.2388 54.8112 72.4601 54.9214 72.6056 55.0699C72.7512 55.2169 72.824 55.4064 72.824 55.6384C72.824 55.8287 72.7692 55.9987 72.6597 56.1486C72.5516 56.2985 72.4002 56.4167 72.2057 56.5031C72.0111 56.5896 71.7849 56.6328 71.5269 56.6328C71.1882 56.6328 70.9079 56.5593 70.686 56.4123C70.464 56.2653 70.3235 56.0506 70.2644 55.7681L70.7487 55.6471C70.7948 55.8258 70.882 55.9598 71.0102 56.0492C71.1399 56.1385 71.3093 56.1832 71.5183 56.1832C71.756 56.1832 71.9448 56.1327 72.0846 56.0319C72.2259 55.9295 72.2965 55.807 72.2965 55.6644C72.2965 55.5491 72.2561 55.4525 72.1754 55.3747C72.0947 55.2954 71.9708 55.2363 71.8036 55.1974L71.2502 55.0677C70.9461 54.9957 70.7227 54.884 70.58 54.7327C70.4388 54.5799 70.3682 54.3889 70.3682 54.1598C70.3682 53.9724 70.4208 53.8067 70.526 53.6626C70.6327 53.5185 70.7775 53.4053 70.9605 53.3232C71.145 53.241 71.354 53.2 71.5874 53.2C71.916 53.2 72.174 53.272 72.3613 53.4161C72.5501 53.5603 72.6842 53.7505 72.7634 53.9868ZM75.9439 53.9868L75.4856 54.1166C75.4568 54.0402 75.4143 53.9659 75.3581 53.8939C75.3033 53.8204 75.2284 53.7599 75.1332 53.7123C75.0381 53.6647 74.9164 53.641 74.7679 53.641C74.5647 53.641 74.3954 53.6878 74.2599 53.7815C74.1259 53.8737 74.0589 53.9912 74.0589 54.1338C74.0589 54.2607 74.105 54.3608 74.1972 54.4343C74.2894 54.5078 74.4336 54.5691 74.6296 54.6181L75.1224 54.7391C75.4193 54.8112 75.6405 54.9214 75.7861 55.0699C75.9317 55.2169 76.0044 55.4064 76.0044 55.6384C76.0044 55.8287 75.9497 55.9987 75.8401 56.1486C75.7321 56.2985 75.5807 56.4167 75.3862 56.5031C75.1916 56.5896 74.9654 56.6328 74.7074 56.6328C74.3687 56.6328 74.0884 56.5593 73.8665 56.4123C73.6445 56.2653 73.504 56.0506 73.4449 55.7681L73.9292 55.6471C73.9753 55.8258 74.0625 55.9598 74.1907 56.0492C74.3204 56.1385 74.4898 56.1832 74.6987 56.1832C74.9365 56.1832 75.1253 56.1327 75.2651 56.0319C75.4064 55.9295 75.477 55.807 75.477 55.6644C75.477 55.5491 75.4366 55.4525 75.3559 55.3747C75.2752 55.2954 75.1513 55.2363 74.9841 55.1974L74.4307 55.0677C74.1266 54.9957 73.9032 54.884 73.7605 54.7327C73.6193 54.5799 73.5487 54.3889 73.5487 54.1598C73.5487 53.9724 73.6013 53.8067 73.7065 53.6626C73.8131 53.5185 73.958 53.4053 74.141 53.3232C74.3255 53.241 74.5344 53.2 74.7679 53.2C75.0965 53.2 75.3545 53.272 75.5418 53.4161C75.7306 53.5603 75.8646 53.7505 75.9439 53.9868ZM76.7724 56.5637V53.2432H77.2653V53.762H77.3085C77.3777 53.5848 77.4894 53.4471 77.6436 53.3491C77.7978 53.2497 77.983 53.2 78.1992 53.2C78.4182 53.2 78.6005 53.2497 78.7461 53.3491C78.8931 53.4471 79.0077 53.5848 79.0898 53.762H79.1244C79.2094 53.5905 79.337 53.4543 79.507 53.3535C79.6771 53.2511 79.881 53.2 80.1188 53.2C80.4157 53.2 80.6585 53.2929 80.8473 53.4788C81.0361 53.6633 81.1305 53.9508 81.1305 54.3414V56.5637H80.6203V54.3414C80.6203 54.0964 80.5533 53.9213 80.4193 53.8161C80.2853 53.7109 80.1274 53.6583 79.9459 53.6583C79.7124 53.6583 79.5315 53.7289 79.4033 53.8701C79.275 54.0099 79.2109 54.1872 79.2109 54.4019V56.5637H78.692V54.2895C78.692 54.1007 78.6308 53.9487 78.5083 53.8334C78.3858 53.7166 78.228 53.6583 78.0349 53.6583C77.9023 53.6583 77.7783 53.6936 77.663 53.7642C77.5492 53.8348 77.457 53.9328 77.3863 54.0582C77.3172 54.1821 77.2826 54.3255 77.2826 54.4884V56.5637H76.7724ZM83.4555 56.6328C83.1355 56.6328 82.8595 56.5622 82.6275 56.421C82.3969 56.2783 82.2189 56.0794 82.0936 55.8243C81.9696 55.5678 81.9077 55.2695 81.9077 54.9294C81.9077 54.5893 81.9696 54.2895 82.0936 54.0301C82.2189 53.7692 82.3933 53.566 82.6167 53.4205C82.8415 53.2735 83.1038 53.2 83.4036 53.2C83.5765 53.2 83.7473 53.2288 83.9159 53.2864C84.0845 53.3441 84.238 53.4378 84.3764 53.5675C84.5147 53.6957 84.625 53.8658 84.7071 54.0776C84.7893 54.2895 84.8303 54.5503 84.8303 54.8602V55.0764H82.2708V54.6354H84.3115C84.3115 54.448 84.2741 54.2808 84.1991 54.1338C84.1256 53.9868 84.0204 53.8708 83.8835 53.7858C83.748 53.7008 83.5881 53.6583 83.4036 53.6583C83.2004 53.6583 83.0246 53.7087 82.8761 53.8096C82.7291 53.909 82.616 54.0387 82.5367 54.1987C82.4575 54.3587 82.4178 54.5302 82.4178 54.7132V55.0072C82.4178 55.258 82.4611 55.4705 82.5475 55.6449C82.6354 55.8179 82.7572 55.9497 82.9129 56.0405C83.0685 56.1299 83.2494 56.1745 83.4555 56.1745C83.5895 56.1745 83.7106 56.1558 83.8186 56.1183C83.9282 56.0794 84.0226 56.0218 84.1018 55.9454C84.1811 55.8676 84.2423 55.771 84.2856 55.6557L84.7785 55.7941C84.7266 55.9613 84.6394 56.1082 84.5169 56.2351C84.3944 56.3605 84.2431 56.4585 84.0629 56.5291C83.8828 56.5982 83.6803 56.6328 83.4555 56.6328ZM86.1166 54.5662V56.5637H85.6064V53.2432H86.0993V53.762H86.1425C86.2204 53.5934 86.3385 53.4579 86.4971 53.3556C86.6556 53.2518 86.8602 53.2 87.111 53.2C87.3358 53.2 87.5325 53.2461 87.7012 53.3383C87.8698 53.4291 88.0009 53.5675 88.0946 53.7534C88.1883 53.9378 88.2351 54.1713 88.2351 54.4538V56.5637H87.7249V54.4884C87.7249 54.2275 87.6572 54.0243 87.5217 53.8788C87.3863 53.7318 87.2004 53.6583 86.964 53.6583C86.8011 53.6583 86.6556 53.6936 86.5273 53.7642C86.4005 53.8348 86.3003 53.9378 86.2268 54.0733C86.1533 54.2088 86.1166 54.3731 86.1166 54.5662ZM90.6114 53.2432V53.6756H88.8907V53.2432H90.6114ZM89.3922 52.4477H89.9024V55.6125C89.9024 55.7566 89.9233 55.8647 89.9651 55.9368C90.0083 56.0074 90.0631 56.0549 90.1293 56.0794C90.1971 56.1025 90.2684 56.114 90.3434 56.114C90.3996 56.114 90.4457 56.1111 90.4817 56.1054C90.5177 56.0982 90.5466 56.0924 90.5682 56.0881L90.6719 56.5464C90.6374 56.5593 90.5891 56.5723 90.5271 56.5853C90.4651 56.5997 90.3866 56.6069 90.2915 56.6069C90.1474 56.6069 90.0061 56.5759 89.8678 56.5139C89.7309 56.452 89.617 56.3576 89.5262 56.2307C89.4369 56.1039 89.3922 55.944 89.3922 55.7508V52.4477Z" fill="#012232" />
<g id="Condition options" clip-path="url(#clip1_0_1)">
<g id="Good">
<rect x="27.3182" y="66.2045" width="51.2755" height="15.635" rx="7.8175" fill="#FFFCF5" />
<rect x="27.3182" y="66.2045" width="51.2755" height="15.635" rx="7.8175" stroke="#222A29" stroke-width="0.234135" />
<path id="Good_2" d="M49.1707 73.1947C49.1305 73.0716 49.0774 72.9612 49.0116 72.8636C48.947 72.7649 48.8695 72.6807 48.7793 72.6112C48.6903 72.5417 48.5891 72.4887 48.4756 72.4521C48.3622 72.4155 48.2379 72.3972 48.1025 72.3972C47.8806 72.3972 47.6787 72.4545 47.497 72.5691C47.3153 72.6838 47.1708 72.8527 47.0635 73.0758C46.9562 73.299 46.9026 73.5728 46.9026 73.8971C46.9026 74.2215 46.9568 74.4953 47.0654 74.7184C47.1739 74.9416 47.3208 75.1105 47.5062 75.2251C47.6915 75.3397 47.9001 75.3971 48.1318 75.3971C48.3464 75.3971 48.5354 75.3513 48.6988 75.2599C48.8634 75.1672 48.9915 75.0367 49.0829 74.8684C49.1756 74.6989 49.222 74.4995 49.222 74.2703L49.361 74.2995H48.2342V73.8971H49.661V74.2995C49.661 74.6081 49.5951 74.8763 49.4634 75.1044C49.3329 75.3324 49.1524 75.5092 48.922 75.6348C48.6927 75.7592 48.4293 75.8214 48.1318 75.8214C47.8001 75.8214 47.5086 75.7434 47.2574 75.5873C47.0074 75.4312 46.8123 75.2093 46.6721 74.9215C46.5331 74.6337 46.4636 74.2922 46.4636 73.8971C46.4636 73.6008 46.5032 73.3343 46.5824 73.0978C46.6629 72.86 46.7763 72.6576 46.9227 72.4905C47.069 72.3234 47.2422 72.1954 47.4422 72.1064C47.6422 72.0173 47.8623 71.9728 48.1025 71.9728C48.3 71.9728 48.4842 72.0027 48.6549 72.0625C48.8268 72.121 48.9799 72.2045 49.114 72.3131C49.2494 72.4204 49.3622 72.549 49.4524 72.699C49.5427 72.8478 49.6049 73.013 49.639 73.1947H49.1707ZM51.5208 75.8287C51.2671 75.8287 51.0446 75.7684 50.8531 75.6476C50.6629 75.5269 50.5141 75.358 50.4068 75.141C50.3007 74.9239 50.2477 74.6703 50.2477 74.38C50.2477 74.0874 50.3007 73.8319 50.4068 73.6136C50.5141 73.3953 50.6629 73.2258 50.8531 73.1051C51.0446 72.9844 51.2671 72.924 51.5208 72.924C51.7744 72.924 51.9964 72.9844 52.1866 73.1051C52.378 73.2258 52.5268 73.3953 52.6329 73.6136C52.7402 73.8319 52.7939 74.0874 52.7939 74.38C52.7939 74.6703 52.7402 74.9239 52.6329 75.141C52.5268 75.358 52.378 75.5269 52.1866 75.6476C51.9964 75.7684 51.7744 75.8287 51.5208 75.8287ZM51.5208 75.441C51.7134 75.441 51.872 75.3916 51.9964 75.2928C52.1207 75.194 52.2128 75.0641 52.2726 74.9032C52.3323 74.7422 52.3622 74.5678 52.3622 74.38C52.3622 74.1922 52.3323 74.0172 52.2726 73.8551C52.2128 73.6929 52.1207 73.5618 51.9964 73.4618C51.872 73.3618 51.7134 73.3118 51.5208 73.3118C51.3281 73.3118 51.1696 73.3618 51.0452 73.4618C50.9208 73.5618 50.8287 73.6929 50.769 73.8551C50.7092 74.0172 50.6793 74.1922 50.6793 74.38C50.6793 74.5678 50.7092 74.7422 50.769 74.9032C50.8287 75.0641 50.9208 75.194 51.0452 75.2928C51.1696 75.3916 51.3281 75.441 51.5208 75.441ZM54.5942 75.8287C54.3406 75.8287 54.1181 75.7684 53.9266 75.6476C53.7364 75.5269 53.5876 75.358 53.4803 75.141C53.3742 74.9239 53.3211 74.6703 53.3211 74.38C53.3211 74.0874 53.3742 73.8319 53.4803 73.6136C53.5876 73.3953 53.7364 73.2258 53.9266 73.1051C54.1181 72.9844 54.3406 72.924 54.5942 72.924C54.8479 72.924 55.0698 72.9844 55.2601 73.1051C55.4515 73.2258 55.6003 73.3953 55.7064 73.6136C55.8137 73.8319 55.8674 74.0874 55.8674 74.38C55.8674 74.6703 55.8137 74.9239 55.7064 75.141C55.6003 75.358 55.4515 75.5269 55.2601 75.6476C55.0698 75.7684 54.8479 75.8287 54.5942 75.8287ZM54.5942 75.441C54.7869 75.441 54.9454 75.3916 55.0698 75.2928C55.1942 75.194 55.2863 75.0641 55.346 74.9032C55.4058 74.7422 55.4357 74.5678 55.4357 74.38C55.4357 74.1922 55.4058 74.0172 55.346 73.8551C55.2863 73.6929 55.1942 73.5618 55.0698 73.4618C54.9454 73.3618 54.7869 73.3118 54.5942 73.3118C54.4016 73.3118 54.243 73.3618 54.1187 73.4618C53.9943 73.5618 53.9022 73.6929 53.8425 73.8551C53.7827 74.0172 53.7528 74.1922 53.7528 74.38C53.7528 74.5678 53.7827 74.7422 53.8425 74.9032C53.9022 75.0641 53.9943 75.194 54.1187 75.2928C54.243 75.3916 54.4016 75.441 54.5942 75.441ZM57.5872 75.8287C57.3531 75.8287 57.1464 75.7696 56.9671 75.6513C56.7879 75.5318 56.6477 75.3635 56.5464 75.1465C56.4452 74.9282 56.3946 74.6703 56.3946 74.3727C56.3946 74.0776 56.4452 73.8215 56.5464 73.6045C56.6477 73.3874 56.7885 73.2197 56.969 73.1014C57.1495 72.9831 57.358 72.924 57.5946 72.924C57.7775 72.924 57.922 72.9545 58.0281 73.0155C58.1354 73.0752 58.2171 73.1435 58.2732 73.2203C58.3305 73.2959 58.375 73.3581 58.4067 73.4069H58.4433V72.024H58.875V75.7702H58.4579V75.3385H58.4067C58.375 75.3897 58.3299 75.4544 58.2714 75.5324C58.2128 75.6092 58.1293 75.6781 58.0208 75.7391C57.9122 75.7989 57.7677 75.8287 57.5872 75.8287ZM57.6458 75.441C57.8189 75.441 57.9653 75.3958 58.0848 75.3056C58.2043 75.2141 58.2951 75.0879 58.3573 74.927C58.4195 74.7648 58.4506 74.5776 58.4506 74.3654C58.4506 74.1556 58.4201 73.9721 58.3592 73.8148C58.2982 73.6563 58.2079 73.5331 58.0884 73.4453C57.9689 73.3563 57.8214 73.3118 57.6458 73.3118C57.4629 73.3118 57.3104 73.3587 57.1885 73.4526C57.0678 73.5453 56.9769 73.6715 56.9159 73.8313C56.8562 73.9898 56.8263 74.1678 56.8263 74.3654C56.8263 74.5654 56.8568 74.7471 56.9178 74.9105C56.98 75.0727 57.0714 75.2019 57.1921 75.2983C57.3141 75.3934 57.4653 75.441 57.6458 75.441Z" fill="#012232" />
</g>
<g id="Repair">
<rect x="84.3301" y="66.0875" width="51.5097" height="15.8691" rx="7.93457" fill="#D1E6C2" />
<path id="Repair_2" d="M102.557 75.7702V72.024H103.823C104.116 72.024 104.356 72.074 104.544 72.174C104.731 72.2728 104.87 72.4088 104.961 72.5819C105.051 72.7551 105.096 72.952 105.096 73.1728C105.096 73.3935 105.051 73.5892 104.961 73.7599C104.87 73.9307 104.732 74.0648 104.545 74.1624C104.359 74.2587 104.12 74.3069 103.83 74.3069H102.806V73.8971H103.816C104.016 73.8971 104.177 73.8679 104.299 73.8093C104.422 73.7508 104.511 73.6679 104.566 73.5606C104.622 73.452 104.65 73.3228 104.65 73.1728C104.65 73.0228 104.622 72.8917 104.566 72.7795C104.509 72.6673 104.42 72.5807 104.297 72.5198C104.174 72.4576 104.011 72.4265 103.808 72.4265H103.011V75.7702H102.557ZM104.32 74.0874L105.242 75.7702H104.716L103.808 74.0874H104.32ZM106.941 75.8287C106.671 75.8287 106.437 75.769 106.241 75.6495C106.046 75.5288 105.895 75.3605 105.789 75.1446C105.684 74.9276 105.632 74.6751 105.632 74.3873C105.632 74.0996 105.684 73.8459 105.789 73.6264C105.895 73.4057 106.042 73.2337 106.232 73.1106C106.422 72.9862 106.644 72.924 106.897 72.924C107.044 72.924 107.188 72.9484 107.331 72.9972C107.474 73.0459 107.603 73.1252 107.72 73.235C107.838 73.3435 107.931 73.4874 108 73.6666C108.07 73.8459 108.105 74.0666 108.105 74.3288V74.5117H105.939V74.1386H107.666C107.666 73.98 107.634 73.8386 107.57 73.7142C107.508 73.5898 107.419 73.4917 107.303 73.4197C107.189 73.3478 107.053 73.3118 106.897 73.3118C106.725 73.3118 106.577 73.3545 106.451 73.4398C106.327 73.524 106.231 73.6337 106.164 73.7691C106.097 73.9044 106.063 74.0496 106.063 74.2044V74.4532C106.063 74.6654 106.1 74.8452 106.173 74.9928C106.247 75.1391 106.35 75.2507 106.482 75.3275C106.614 75.4031 106.767 75.441 106.941 75.441C107.055 75.441 107.157 75.4251 107.249 75.3934C107.341 75.3605 107.421 75.3117 107.488 75.2471C107.555 75.1812 107.607 75.0995 107.644 75.0019L108.061 75.119C108.017 75.2605 107.943 75.3849 107.839 75.4922C107.736 75.5983 107.608 75.6812 107.455 75.7409C107.303 75.7995 107.131 75.8287 106.941 75.8287ZM108.761 76.8238V72.9606H109.178V73.4069H109.23C109.261 73.3581 109.305 73.2959 109.361 73.2203C109.419 73.1435 109.5 73.0752 109.606 73.0155C109.714 72.9545 109.859 72.924 110.042 72.924C110.278 72.924 110.487 72.9831 110.667 73.1014C110.848 73.2197 110.989 73.3874 111.09 73.6045C111.191 73.8215 111.242 74.0776 111.242 74.3727C111.242 74.6703 111.191 74.9282 111.09 75.1465C110.989 75.3635 110.848 75.5318 110.669 75.6513C110.49 75.7696 110.283 75.8287 110.049 75.8287C109.869 75.8287 109.724 75.7989 109.615 75.7391C109.507 75.6781 109.423 75.6092 109.365 75.5324C109.306 75.4544 109.261 75.3897 109.23 75.3385H109.193V76.8238H108.761ZM109.186 74.3654C109.186 74.5776 109.217 74.7648 109.279 74.927C109.341 75.0879 109.432 75.2141 109.551 75.3056C109.671 75.3958 109.817 75.441 109.99 75.441C110.171 75.441 110.322 75.3934 110.442 75.2983C110.564 75.2019 110.656 75.0727 110.717 74.9105C110.779 74.7471 110.81 74.5654 110.81 74.3654C110.81 74.1678 110.779 73.9898 110.718 73.8313C110.659 73.6715 110.568 73.5453 110.446 73.4526C110.325 73.3587 110.173 73.3118 109.99 73.3118C109.815 73.3118 109.667 73.3563 109.548 73.4453C109.428 73.5331 109.338 73.6563 109.277 73.8148C109.216 73.9721 109.186 74.1556 109.186 74.3654ZM112.727 75.8361C112.549 75.8361 112.387 75.8025 112.242 75.7354C112.097 75.6672 111.982 75.569 111.896 75.441C111.811 75.3117 111.768 75.1556 111.768 74.9727C111.768 74.8117 111.8 74.6812 111.864 74.5812C111.927 74.48 112.012 74.4008 112.118 74.3434C112.224 74.2861 112.341 74.2434 112.469 74.2154C112.598 74.1861 112.728 74.163 112.859 74.1459C113.029 74.1239 113.168 74.1075 113.274 74.0965C113.381 74.0843 113.459 74.0642 113.508 74.0361C113.558 74.0081 113.583 73.9593 113.583 73.8898V73.8752C113.583 73.6947 113.534 73.5545 113.435 73.4545C113.337 73.3545 113.189 73.3045 112.99 73.3045C112.784 73.3045 112.623 73.3496 112.506 73.4398C112.389 73.5301 112.306 73.6264 112.259 73.7288L111.849 73.5825C111.922 73.4118 112.02 73.2789 112.142 73.1837C112.265 73.0874 112.399 73.0203 112.544 72.9825C112.69 72.9435 112.834 72.924 112.976 72.924C113.066 72.924 113.17 72.935 113.287 72.9569C113.405 72.9777 113.519 73.0209 113.629 73.0868C113.74 73.1526 113.832 73.252 113.905 73.385C113.978 73.5179 114.015 73.6959 114.015 73.9191V75.7702H113.583V75.3897H113.561C113.532 75.4507 113.483 75.5159 113.415 75.5855C113.346 75.655 113.256 75.7141 113.142 75.7629C113.029 75.8117 112.89 75.8361 112.727 75.8361ZM112.793 75.4483C112.963 75.4483 113.107 75.4147 113.224 75.3477C113.343 75.2806 113.432 75.194 113.492 75.0879C113.552 74.9818 113.583 74.8702 113.583 74.7532V74.3581C113.565 74.38 113.524 74.4001 113.462 74.4184C113.401 74.4355 113.331 74.4508 113.25 74.4642C113.171 74.4764 113.093 74.4873 113.018 74.4971C112.943 74.5056 112.883 74.5129 112.837 74.519C112.724 74.5337 112.62 74.5575 112.522 74.5904C112.426 74.6221 112.348 74.6703 112.288 74.7349C112.229 74.7983 112.2 74.8849 112.2 74.9946C112.2 75.1446 112.256 75.258 112.367 75.3349C112.479 75.4105 112.621 75.4483 112.793 75.4483ZM114.803 75.7702V72.9606H115.234V75.7702H114.803ZM115.022 72.4923C114.938 72.4923 114.865 72.4637 114.804 72.4063C114.745 72.349 114.715 72.2801 114.715 72.1996C114.715 72.1192 114.745 72.0503 114.804 71.9929C114.865 71.9356 114.938 71.907 115.022 71.907C115.106 71.907 115.178 71.9356 115.238 71.9929C115.299 72.0503 115.329 72.1192 115.329 72.1996C115.329 72.2801 115.299 72.349 115.238 72.4063C115.178 72.4637 115.106 72.4923 115.022 72.4923ZM116.025 75.7702V72.9606H116.442V73.385H116.471C116.522 73.2459 116.615 73.1331 116.749 73.0466C116.883 72.96 117.035 72.9167 117.203 72.9167C117.235 72.9167 117.274 72.9173 117.322 72.9185C117.369 72.9197 117.405 72.9216 117.43 72.924V73.363C117.415 73.3593 117.382 73.3539 117.329 73.3465C117.278 73.338 117.224 73.3337 117.166 73.3337C117.03 73.3337 116.908 73.3624 116.801 73.4197C116.694 73.4758 116.61 73.5538 116.548 73.6538C116.487 73.7526 116.457 73.8654 116.457 73.9922V75.7702H116.025Z" fill="#012232" />
</g>
</g>
<g id="Condition options_2" clip-path="url(#clip2_0_1)">
<g id="Replace">
<rect x="27.3182" y="90.5025" width="51.2755" height="15.635" rx="7.8175" fill="#FFFCF5" />
<rect x="27.3182" y="90.5025" width="51.2755" height="15.635" rx="7.8175" stroke="#222A29" stroke-width="0.234135" />
<path id="Replace_2" d="M43.6548 100.068V96.322H44.9206C45.2133 96.322 45.4535 96.372 45.6413 96.472C45.8291 96.5708 45.9681 96.7068 46.0583 96.8799C46.1486 97.0531 46.1937 97.25 46.1937 97.4707C46.1937 97.6915 46.1486 97.8872 46.0583 98.0579C45.9681 98.2286 45.8297 98.3628 45.6431 98.4603C45.4565 98.5567 45.2181 98.6048 44.9279 98.6048H43.9036V98.1951H44.9133C45.1133 98.1951 45.2742 98.1658 45.3962 98.1073C45.5194 98.0488 45.6084 97.9658 45.6632 97.8585C45.7193 97.75 45.7474 97.6207 45.7474 97.4707C45.7474 97.3208 45.7193 97.1897 45.6632 97.0775C45.6072 96.9653 45.5175 96.8787 45.3944 96.8177C45.2712 96.7555 45.1084 96.7244 44.906 96.7244H44.1084V100.068H43.6548ZM45.4181 98.3853L46.34 100.068H45.8132L44.906 98.3853H45.4181ZM48.0389 100.127C47.7682 100.127 47.5346 100.067 47.3383 99.9475C47.1432 99.8267 46.9926 99.6584 46.8865 99.4426C46.7816 99.2255 46.7292 98.9731 46.7292 98.6853C46.7292 98.3975 46.7816 98.1439 46.8865 97.9244C46.9926 97.7037 47.1402 97.5317 47.3292 97.4086C47.5194 97.2842 47.7413 97.222 47.995 97.222C48.1413 97.222 48.2858 97.2464 48.4285 97.2951C48.5712 97.3439 48.7011 97.4232 48.8181 97.5329C48.9352 97.6415 49.0285 97.7854 49.098 97.9646C49.1675 98.1439 49.2022 98.3646 49.2022 98.6268V98.8097H47.0365V98.4365H48.7632C48.7632 98.278 48.7315 98.1366 48.6681 98.0122C48.6059 97.8878 48.5169 97.7896 48.4011 97.7177C48.2864 97.6457 48.1511 97.6098 47.995 97.6098C47.823 97.6098 47.6743 97.6524 47.5487 97.7378C47.4243 97.8219 47.3286 97.9317 47.2615 98.0671C47.1944 98.2024 47.1609 98.3475 47.1609 98.5024V98.7512C47.1609 98.9634 47.1975 99.1432 47.2706 99.2908C47.345 99.4371 47.4481 99.5487 47.5798 99.6255C47.7115 99.7011 47.8645 99.7389 48.0389 99.7389C48.1523 99.7389 48.2547 99.7231 48.3462 99.6914C48.4389 99.6584 48.5187 99.6097 48.5858 99.545C48.6529 99.4792 48.7047 99.3975 48.7413 99.2999L49.1583 99.417C49.1144 99.5584 49.0407 99.6828 48.937 99.7901C48.8334 99.8962 48.7053 99.9792 48.5529 100.039C48.4005 100.097 48.2291 100.127 48.0389 100.127ZM49.8589 101.122V97.2586H50.276V97.7049H50.3272C50.3589 97.6561 50.4028 97.5939 50.4589 97.5183C50.5162 97.4415 50.5979 97.3732 50.704 97.3134C50.8113 97.2525 50.9564 97.222 51.1393 97.222C51.3759 97.222 51.5844 97.2811 51.7649 97.3994C51.9454 97.5177 52.0863 97.6854 52.1875 97.9024C52.2887 98.1195 52.3393 98.3756 52.3393 98.6707C52.3393 98.9682 52.2887 99.2261 52.1875 99.4444C52.0863 99.6615 51.946 99.8298 51.7668 99.9493C51.5875 100.068 51.3808 100.127 51.1467 100.127C50.9662 100.127 50.8217 100.097 50.7131 100.037C50.6046 99.9761 50.5211 99.9072 50.4626 99.8304C50.404 99.7523 50.3589 99.6877 50.3272 99.6365H50.2906V101.122H49.8589ZM50.2833 98.6634C50.2833 98.8756 50.3144 99.0627 50.3766 99.2249C50.4388 99.3859 50.5296 99.5121 50.6491 99.6036C50.7686 99.6938 50.915 99.7389 51.0881 99.7389C51.2686 99.7389 51.4192 99.6914 51.5399 99.5962C51.6619 99.4999 51.7533 99.3706 51.8143 99.2085C51.8765 99.0451 51.9076 98.8634 51.9076 98.6634C51.9076 98.4658 51.8771 98.2878 51.8161 98.1292C51.7564 97.9695 51.6655 97.8433 51.5436 97.7506C51.4229 97.6567 51.271 97.6098 51.0881 97.6098C50.9125 97.6098 50.765 97.6543 50.6455 97.7433C50.526 97.8311 50.4357 97.9543 50.3748 98.1128C50.3138 98.2701 50.2833 98.4536 50.2833 98.6634ZM53.4295 96.322V100.068H52.9978V96.322H53.4295ZM55.0469 100.134C54.8689 100.134 54.7073 100.1 54.5622 100.033C54.4171 99.9651 54.3018 99.867 54.2165 99.7389C54.1311 99.6097 54.0884 99.4536 54.0884 99.2707C54.0884 99.1097 54.1201 98.9792 54.1836 98.8792C54.247 98.778 54.3317 98.6987 54.4378 98.6414C54.5439 98.5841 54.661 98.5414 54.789 98.5134C54.9183 98.4841 55.0481 98.4609 55.1786 98.4439C55.3494 98.4219 55.4878 98.4055 55.5939 98.3945C55.7012 98.3823 55.7792 98.3622 55.828 98.3341C55.878 98.3061 55.903 98.2573 55.903 98.1878V98.1731C55.903 97.9927 55.8536 97.8524 55.7548 97.7524C55.6573 97.6524 55.5091 97.6024 55.3103 97.6024C55.1042 97.6024 54.9427 97.6476 54.8256 97.7378C54.7085 97.828 54.6262 97.9244 54.5787 98.0268L54.1689 97.8805C54.2421 97.7098 54.3396 97.5768 54.4616 97.4817C54.5848 97.3854 54.7189 97.3183 54.864 97.2805C55.0103 97.2415 55.1542 97.222 55.2957 97.222C55.3859 97.222 55.4896 97.233 55.6067 97.2549C55.7249 97.2756 55.839 97.3189 55.9487 97.3848C56.0597 97.4506 56.1518 97.55 56.2249 97.6829C56.2981 97.8158 56.3347 97.9939 56.3347 98.217V100.068H55.903V99.6877H55.881C55.8518 99.7487 55.803 99.8139 55.7347 99.8834C55.6664 99.9529 55.5756 100.012 55.4622 100.061C55.3487 100.11 55.2103 100.134 55.0469 100.134ZM55.1128 99.7462C55.2835 99.7462 55.4274 99.7127 55.5445 99.6456C55.6628 99.5786 55.7518 99.492 55.8115 99.3859C55.8725 99.2798 55.903 99.1682 55.903 99.0512V98.6561C55.8847 98.678 55.8445 98.6981 55.7823 98.7164C55.7213 98.7335 55.6506 98.7487 55.5701 98.7621C55.4908 98.7743 55.4134 98.7853 55.3378 98.7951C55.2634 98.8036 55.203 98.8109 55.1567 98.817C55.0445 98.8317 54.9396 98.8554 54.8421 98.8884C54.7457 98.9201 54.6677 98.9682 54.6079 99.0329C54.5494 99.0963 54.5201 99.1829 54.5201 99.2926C54.5201 99.4426 54.5756 99.556 54.6866 99.6328C54.7988 99.7084 54.9408 99.7462 55.1128 99.7462ZM58.264 100.127C58.0006 100.127 57.7738 100.065 57.5835 99.9401C57.3933 99.8157 57.247 99.6444 57.1445 99.4261C57.0421 99.2079 56.9909 98.9585 56.9909 98.678C56.9909 98.3926 57.0433 98.1408 57.1482 97.9226C57.2543 97.703 57.4018 97.5317 57.5909 97.4086C57.7811 97.2842 58.003 97.222 58.2567 97.222C58.4542 97.222 58.6323 97.2586 58.7908 97.3317C58.9493 97.4049 59.0792 97.5073 59.1804 97.639C59.2816 97.7707 59.3444 97.9244 59.3688 98.1H58.9371C58.9042 97.9719 58.831 97.8585 58.7176 97.7598C58.6054 97.6598 58.4542 97.6098 58.264 97.6098C58.0957 97.6098 57.9482 97.6537 57.8213 97.7415C57.6957 97.828 57.5976 97.9506 57.5268 98.1091C57.4573 98.2664 57.4226 98.4512 57.4226 98.6634C57.4226 98.8804 57.4567 99.0694 57.525 99.2304C57.5945 99.3914 57.6921 99.5164 57.8177 99.6054C57.9445 99.6944 58.0933 99.7389 58.264 99.7389C58.3762 99.7389 58.478 99.7194 58.5695 99.6804C58.6609 99.6414 58.7384 99.5853 58.8018 99.5121C58.8652 99.4389 58.9103 99.3511 58.9371 99.2487H59.3688C59.3444 99.4145 59.2841 99.5639 59.1877 99.6969C59.0926 99.8286 58.9664 99.9334 58.8091 100.011C58.653 100.088 58.4713 100.127 58.264 100.127ZM61.1779 100.127C60.9072 100.127 60.6736 100.067 60.4773 99.9475C60.2822 99.8267 60.1316 99.6584 60.0255 99.4426C59.9206 99.2255 59.8682 98.9731 59.8682 98.6853C59.8682 98.3975 59.9206 98.1439 60.0255 97.9244C60.1316 97.7037 60.2791 97.5317 60.4682 97.4086C60.6584 97.2842 60.8803 97.222 61.134 97.222C61.2803 97.222 61.4248 97.2464 61.5675 97.2951C61.7102 97.3439 61.84 97.4232 61.9571 97.5329C62.0742 97.6415 62.1675 97.7854 62.237 97.9646C62.3065 98.1439 62.3412 98.3646 62.3412 98.6268V98.8097H60.1755V98.4365H61.9022C61.9022 98.278 61.8705 98.1366 61.8071 98.0122C61.7449 97.8878 61.6559 97.7896 61.5401 97.7177C61.4254 97.6457 61.2901 97.6098 61.134 97.6098C60.962 97.6098 60.8133 97.6524 60.6877 97.7378C60.5633 97.8219 60.4675 97.9317 60.4005 98.0671C60.3334 98.2024 60.2999 98.3475 60.2999 98.5024V98.7512C60.2999 98.9634 60.3365 99.1432 60.4096 99.2908C60.484 99.4371 60.5871 99.5487 60.7188 99.6255C60.8505 99.7011 61.0035 99.7389 61.1779 99.7389C61.2913 99.7389 61.3937 99.7231 61.4852 99.6914C61.5779 99.6584 61.6577 99.6097 61.7248 99.545C61.7919 99.4792 61.8437 99.3975 61.8803 99.2999L62.2973 99.417C62.2534 99.5584 62.1797 99.6828 62.076 99.7901C61.9723 99.8962 61.8443 99.9792 61.6919 100.039C61.5394 100.097 61.3681 100.127 61.1779 100.127Z" fill="#012232" />
</g>
<g id="Missing">
<rect x="84.4471" y="90.5025" width="51.2755" height="15.635" rx="7.8175" fill="#FFFCF5" />
<rect x="84.4471" y="90.5025" width="51.2755" height="15.635" rx="7.8175" stroke="#222A29" stroke-width="0.234135" />
<path id="Missing_2" d="M101.079 96.322H101.62L102.893 99.4316H102.937L104.21 96.322H104.752V100.068H104.327V97.222H104.291L103.12 100.068H102.71L101.54 97.222H101.503V100.068H101.079V96.322ZM105.603 100.068V97.2586H106.034V100.068H105.603ZM105.822 96.7903C105.738 96.7903 105.665 96.7616 105.604 96.7043C105.545 96.647 105.515 96.5781 105.515 96.4976C105.515 96.4171 105.545 96.3482 105.604 96.2909C105.665 96.2336 105.738 96.205 105.822 96.205C105.906 96.205 105.978 96.2336 106.038 96.2909C106.099 96.3482 106.129 96.4171 106.129 96.4976C106.129 96.5781 106.099 96.647 106.038 96.7043C105.978 96.7616 105.906 96.7903 105.822 96.7903ZM108.815 97.8878L108.427 97.9975C108.403 97.9329 108.367 97.8701 108.319 97.8091C108.273 97.7469 108.21 97.6957 108.129 97.6555C108.049 97.6152 107.946 97.5951 107.82 97.5951C107.648 97.5951 107.505 97.6348 107.39 97.714C107.277 97.7921 107.22 97.8915 107.22 98.0122C107.22 98.1195 107.259 98.2042 107.337 98.2664C107.415 98.3286 107.537 98.3805 107.703 98.4219L108.12 98.5244C108.371 98.5853 108.558 98.6786 108.682 98.8042C108.805 98.9286 108.866 99.089 108.866 99.2853C108.866 99.4463 108.82 99.5902 108.727 99.717C108.636 99.8438 108.508 99.9438 108.343 100.017C108.179 100.09 107.987 100.127 107.769 100.127C107.482 100.127 107.245 100.065 107.057 99.9401C106.87 99.8157 106.751 99.6341 106.701 99.395L107.11 99.2926C107.149 99.4438 107.223 99.5572 107.332 99.6328C107.441 99.7084 107.585 99.7462 107.762 99.7462C107.963 99.7462 108.122 99.7036 108.241 99.6182C108.36 99.5316 108.42 99.428 108.42 99.3072C108.42 99.2097 108.386 99.128 108.318 99.0621C108.249 98.9951 108.144 98.9451 108.003 98.9121L107.535 98.8024C107.277 98.7414 107.088 98.6469 106.968 98.5189C106.848 98.3896 106.788 98.228 106.788 98.0341C106.788 97.8756 106.833 97.7354 106.922 97.6134C107.012 97.4915 107.135 97.3957 107.29 97.3262C107.446 97.2567 107.623 97.222 107.82 97.222C108.098 97.222 108.316 97.2829 108.475 97.4049C108.635 97.5268 108.748 97.6878 108.815 97.8878ZM111.506 97.8878L111.119 97.9975C111.094 97.9329 111.058 97.8701 111.011 97.8091C110.964 97.7469 110.901 97.6957 110.82 97.6555C110.74 97.6152 110.637 97.5951 110.511 97.5951C110.339 97.5951 110.196 97.6348 110.081 97.714C109.968 97.7921 109.911 97.8915 109.911 98.0122C109.911 98.1195 109.95 98.2042 110.028 98.2664C110.106 98.3286 110.228 98.3805 110.394 98.4219L110.811 98.5244C111.062 98.5853 111.25 98.6786 111.373 98.8042C111.496 98.9286 111.558 99.089 111.558 99.2853C111.558 99.4463 111.511 99.5902 111.419 99.717C111.327 99.8438 111.199 99.9438 111.034 100.017C110.87 100.09 110.678 100.127 110.46 100.127C110.173 100.127 109.936 100.065 109.748 99.9401C109.561 99.8157 109.442 99.6341 109.392 99.395L109.802 99.2926C109.841 99.4438 109.914 99.5572 110.023 99.6328C110.133 99.7084 110.276 99.7462 110.453 99.7462C110.654 99.7462 110.814 99.7036 110.932 99.6182C111.051 99.5316 111.111 99.428 111.111 99.3072C111.111 99.2097 111.077 99.128 111.009 99.0621C110.94 98.9951 110.836 98.9451 110.694 98.9121L110.226 98.8024C109.969 98.7414 109.78 98.6469 109.659 98.5189C109.539 98.3896 109.48 98.228 109.48 98.0341C109.48 97.8756 109.524 97.7354 109.613 97.6134C109.703 97.4915 109.826 97.3957 109.981 97.3262C110.137 97.2567 110.314 97.222 110.511 97.222C110.789 97.222 111.008 97.2829 111.166 97.4049C111.326 97.5268 111.439 97.6878 111.506 97.8878ZM112.207 100.068V97.2586H112.639V100.068H112.207ZM112.427 96.7903C112.343 96.7903 112.27 96.7616 112.209 96.7043C112.149 96.647 112.12 96.5781 112.12 96.4976C112.12 96.4171 112.149 96.3482 112.209 96.2909C112.27 96.2336 112.343 96.205 112.427 96.205C112.511 96.205 112.583 96.2336 112.643 96.2909C112.704 96.3482 112.734 96.4171 112.734 96.4976C112.734 96.5781 112.704 96.647 112.643 96.7043C112.583 96.7616 112.511 96.7903 112.427 96.7903ZM113.861 98.378V100.068H113.43V97.2586H113.847V97.6976H113.883C113.949 97.5549 114.049 97.4403 114.183 97.3537C114.317 97.2659 114.491 97.222 114.703 97.222C114.893 97.222 115.06 97.261 115.202 97.339C115.345 97.4159 115.456 97.5329 115.535 97.6902C115.614 97.8463 115.654 98.0439 115.654 98.2829V100.068H115.222V98.3122C115.222 98.0914 115.165 97.9195 115.05 97.7963C114.936 97.672 114.778 97.6098 114.578 97.6098C114.441 97.6098 114.317 97.6396 114.209 97.6994C114.102 97.7591 114.017 97.8463 113.955 97.961C113.892 98.0756 113.861 98.2146 113.861 98.378ZM117.577 101.18C117.368 101.18 117.189 101.153 117.039 101.1C116.889 101.047 116.764 100.978 116.664 100.891C116.565 100.806 116.487 100.714 116.428 100.617L116.772 100.375C116.811 100.427 116.86 100.485 116.92 100.551C116.98 100.618 117.062 100.676 117.165 100.725C117.27 100.775 117.407 100.8 117.577 100.8C117.804 100.8 117.991 100.745 118.138 100.635C118.286 100.525 118.36 100.354 118.36 100.119V99.5487H118.323C118.292 99.5999 118.246 99.6633 118.188 99.7389C118.131 99.8133 118.048 99.8798 117.939 99.9383C117.832 99.9956 117.687 100.024 117.504 100.024C117.277 100.024 117.073 99.9706 116.893 99.8633C116.714 99.756 116.571 99.5999 116.467 99.395C116.363 99.1902 116.311 98.9414 116.311 98.6487C116.311 98.3609 116.362 98.1103 116.463 97.8969C116.564 97.6823 116.705 97.5165 116.885 97.3994C117.066 97.2811 117.274 97.222 117.511 97.222C117.694 97.222 117.839 97.2525 117.946 97.3134C118.055 97.3732 118.138 97.4415 118.195 97.5183C118.254 97.5939 118.299 97.6561 118.331 97.7049H118.374V97.2586H118.791V100.149C118.791 100.39 118.737 100.586 118.627 100.738C118.518 100.89 118.372 101.002 118.188 101.072C118.005 101.144 117.801 101.18 117.577 101.18ZM117.562 99.6365C117.735 99.6365 117.882 99.5969 118.001 99.5176C118.121 99.4383 118.212 99.3243 118.274 99.1755C118.336 99.0268 118.367 98.8487 118.367 98.6414C118.367 98.439 118.337 98.2603 118.276 98.1055C118.215 97.9506 118.124 97.8293 118.005 97.7415C117.885 97.6537 117.738 97.6098 117.562 97.6098C117.379 97.6098 117.227 97.6561 117.105 97.7488C116.984 97.8415 116.893 97.9658 116.832 98.1219C116.773 98.278 116.743 98.4512 116.743 98.6414C116.743 98.8365 116.773 99.0091 116.834 99.1591C116.896 99.3078 116.988 99.4249 117.109 99.5103C117.231 99.5944 117.382 99.6365 117.562 99.6365Z" fill="#012232" />
</g>
</g>
<path id="Images" d="M28.1909 116.597V120.683H27.696V116.597H28.1909ZM29.1193 120.683V117.618H29.5743V118.097H29.6142C29.678 117.934 29.7811 117.807 29.9235 117.716C30.0658 117.624 30.2368 117.578 30.4363 117.578C30.6385 117.578 30.8068 117.624 30.9412 117.716C31.0769 117.807 31.1826 117.934 31.2585 118.097H31.2904C31.3689 117.939 31.4866 117.813 31.6436 117.72C31.8006 117.626 31.9888 117.578 32.2083 117.578C32.4823 117.578 32.7065 117.664 32.8808 117.836C33.055 118.006 33.1422 118.272 33.1422 118.632V120.683H32.6712V118.632C32.6712 118.406 32.6094 118.244 32.4857 118.147C32.3619 118.05 32.2163 118.002 32.0487 118.002C31.8332 118.002 31.6662 118.067 31.5478 118.197C31.4294 118.326 31.3702 118.49 31.3702 118.688V120.683H30.8913V118.584C30.8913 118.41 30.8348 118.27 30.7217 118.163C30.6086 118.055 30.4629 118.002 30.2847 118.002C30.1623 118.002 30.0479 118.034 29.9414 118.099C29.8364 118.164 29.7512 118.255 29.686 118.371C29.6222 118.485 29.5902 118.617 29.5902 118.768V120.683H29.1193ZM34.9052 120.755C34.7109 120.755 34.5347 120.719 34.3764 120.645C34.2181 120.571 34.0924 120.464 33.9992 120.324C33.9061 120.183 33.8595 120.013 33.8595 119.813C33.8595 119.638 33.8941 119.495 33.9633 119.386C34.0325 119.276 34.1249 119.189 34.2407 119.127C34.3564 119.064 34.4841 119.018 34.6238 118.987C34.7648 118.955 34.9065 118.93 35.0488 118.911C35.2351 118.887 35.3861 118.87 35.5018 118.858C35.6189 118.844 35.704 118.822 35.7572 118.792C35.8118 118.761 35.8391 118.708 35.8391 118.632V118.616C35.8391 118.419 35.7852 118.266 35.6774 118.157C35.571 118.048 35.4094 117.994 35.1925 117.994C34.9677 117.994 34.7914 118.043 34.6637 118.141C34.536 118.24 34.4462 118.345 34.3943 118.456L33.9473 118.297C34.0272 118.111 34.1336 117.966 34.2666 117.862C34.401 117.757 34.5473 117.684 34.7056 117.642C34.8653 117.6 35.0222 117.578 35.1766 117.578C35.275 117.578 35.3881 117.59 35.5158 117.614C35.6448 117.637 35.7692 117.684 35.8889 117.756C36.01 117.828 36.1104 117.936 36.1903 118.081C36.2701 118.226 36.31 118.421 36.31 118.664V120.683H35.8391V120.268H35.8151C35.7832 120.335 35.73 120.406 35.6555 120.482C35.581 120.558 35.4819 120.622 35.3581 120.675C35.2344 120.729 35.0834 120.755 34.9052 120.755ZM34.977 120.332C35.1633 120.332 35.3202 120.296 35.4479 120.222C35.577 120.149 35.6741 120.055 35.7393 119.939C35.8058 119.823 35.8391 119.702 35.8391 119.574V119.143C35.8191 119.167 35.7752 119.189 35.7073 119.209C35.6408 119.227 35.5637 119.244 35.4759 119.259C35.3894 119.272 35.3049 119.284 35.2225 119.295C35.1413 119.304 35.0755 119.312 35.0249 119.319C34.9025 119.334 34.7881 119.36 34.6817 119.396C34.5766 119.431 34.4914 119.483 34.4263 119.554C34.3624 119.623 34.3305 119.718 34.3305 119.837C34.3305 120.001 34.391 120.125 34.5121 120.208C34.6345 120.291 34.7894 120.332 34.977 120.332ZM38.4067 121.897C38.1792 121.897 37.9837 121.867 37.8201 121.809C37.6564 121.752 37.5201 121.676 37.411 121.581C37.3032 121.488 37.2174 121.388 37.1536 121.282L37.5287 121.019C37.5713 121.075 37.6252 121.138 37.6903 121.21C37.7555 121.283 37.8447 121.347 37.9577 121.4C38.0721 121.454 38.2218 121.482 38.4067 121.482C38.6542 121.482 38.8584 121.422 39.0193 121.302C39.1803 121.182 39.2608 120.995 39.2608 120.739V120.117H39.2209C39.1863 120.173 39.1371 120.242 39.0732 120.324C39.0107 120.405 38.9202 120.478 38.8018 120.542C38.6848 120.604 38.5264 120.636 38.3269 120.636C38.0795 120.636 37.8573 120.577 37.6604 120.46C37.4649 120.343 37.3099 120.173 37.1955 119.949C37.0824 119.726 37.0259 119.454 37.0259 119.135C37.0259 118.821 37.0811 118.548 37.1915 118.315C37.3019 118.081 37.4555 117.9 37.6524 117.772C37.8493 117.643 38.0768 117.578 38.3349 117.578C38.5344 117.578 38.6927 117.612 38.8098 117.678C38.9282 117.743 39.0187 117.818 39.0812 117.902C39.145 117.984 39.1943 118.052 39.2289 118.105H39.2767V117.618H39.7317V120.771C39.7317 121.035 39.6718 121.249 39.5521 121.414C39.4337 121.58 39.2741 121.702 39.0732 121.779C38.8737 121.857 38.6515 121.897 38.4067 121.897ZM38.3908 120.212C38.5797 120.212 38.7393 120.169 38.8697 120.083C39 119.996 39.0991 119.872 39.167 119.71C39.2348 119.547 39.2688 119.353 39.2688 119.127C39.2688 118.906 39.2355 118.711 39.169 118.542C39.1025 118.373 39.004 118.241 38.8737 118.145C38.7433 118.049 38.5823 118.002 38.3908 118.002C38.1912 118.002 38.0249 118.052 37.8919 118.153C37.7602 118.254 37.6611 118.39 37.5946 118.56C37.5294 118.731 37.4968 118.919 37.4968 119.127C37.4968 119.34 37.53 119.528 37.5966 119.692C37.6644 119.854 37.7642 119.982 37.8959 120.075C38.0289 120.167 38.1939 120.212 38.3908 120.212ZM41.8788 120.747C41.5835 120.747 41.3287 120.682 41.1146 120.552C40.9017 120.42 40.7374 120.236 40.6217 120.001C40.5073 119.764 40.4501 119.489 40.4501 119.175C40.4501 118.861 40.5073 118.584 40.6217 118.345C40.7374 118.104 40.8984 117.916 41.1046 117.782C41.3121 117.646 41.5542 117.578 41.8309 117.578C41.9906 117.578 42.1482 117.605 42.3039 117.658C42.4595 117.711 42.6012 117.798 42.7289 117.918C42.8566 118.036 42.9584 118.193 43.0342 118.389C43.11 118.584 43.1479 118.825 43.1479 119.111V119.311H40.7853V118.903H42.669C42.669 118.731 42.6344 118.576 42.5653 118.441C42.4974 118.305 42.4003 118.198 42.2739 118.119C42.1489 118.041 42.0012 118.002 41.8309 118.002C41.6434 118.002 41.4811 118.048 41.344 118.141C41.2084 118.233 41.1039 118.353 41.0308 118.5C40.9576 118.648 40.921 118.806 40.921 118.975V119.247C40.921 119.478 40.9609 119.674 41.0407 119.835C41.1219 119.995 41.2343 120.117 41.378 120.201C41.5216 120.283 41.6886 120.324 41.8788 120.324C42.0026 120.324 42.1143 120.307 42.2141 120.272C42.3152 120.236 42.4023 120.183 42.4755 120.113C42.5486 120.041 42.6052 119.952 42.6451 119.845L43.1001 119.973C43.0522 120.127 42.9717 120.263 42.8586 120.38C42.7455 120.496 42.6058 120.586 42.4396 120.651C42.2733 120.715 42.0864 120.747 41.8788 120.747ZM46.0354 118.305L45.6124 118.425C45.5857 118.354 45.5465 118.286 45.4946 118.219C45.4441 118.151 45.3749 118.095 45.2871 118.051C45.1993 118.007 45.0869 117.986 44.9499 117.986C44.7623 117.986 44.606 118.029 44.4809 118.115C44.3572 118.2 44.2953 118.309 44.2953 118.441C44.2953 118.558 44.3379 118.65 44.4231 118.718C44.5082 118.786 44.6412 118.842 44.8221 118.887L45.2771 118.999C45.5512 119.066 45.7554 119.168 45.8897 119.305C46.0241 119.44 46.0913 119.615 46.0913 119.829C46.0913 120.005 46.0407 120.162 45.9396 120.3C45.8398 120.439 45.7002 120.548 45.5206 120.628C45.341 120.707 45.1321 120.747 44.894 120.747C44.5814 120.747 44.3226 120.679 44.1177 120.544C43.9129 120.408 43.7832 120.21 43.7286 119.949L44.1756 119.837C44.2182 120.002 44.2987 120.126 44.4171 120.208C44.5368 120.291 44.6931 120.332 44.886 120.332C45.1055 120.332 45.2798 120.286 45.4088 120.193C45.5392 120.098 45.6044 119.985 45.6044 119.853C45.6044 119.747 45.5671 119.658 45.4926 119.586C45.4181 119.513 45.3037 119.458 45.1494 119.422L44.6386 119.303C44.3579 119.236 44.1517 119.133 44.02 118.993C43.8896 118.852 43.8244 118.676 43.8244 118.464C43.8244 118.292 43.873 118.139 43.9701 118.005C44.0685 117.872 44.2022 117.768 44.3712 117.692C44.5414 117.616 44.7343 117.578 44.9499 117.578C45.2532 117.578 45.4913 117.645 45.6642 117.778C45.8385 117.911 45.9622 118.087 46.0354 118.305Z" fill="#012232" />
<g id="Add photos  +">
<rect x="27.3182" y="185.58" width="49.6342" height="15.635" rx="7.8175" stroke="#222A29" stroke-width="0.234135" />
<path id="Add photos +" d="M35.3006 195.146H34.8251L36.2006 191.4H36.6689L38.0444 195.146H37.5688L36.4494 191.992H36.4201L35.3006 195.146ZM35.4762 193.682H37.3932V194.085H35.4762V193.682ZM39.6303 195.204C39.3962 195.204 39.1895 195.145 39.0102 195.027C38.831 194.907 38.6907 194.739 38.5895 194.522C38.4883 194.304 38.4377 194.046 38.4377 193.748C38.4377 193.453 38.4883 193.197 38.5895 192.98C38.6907 192.763 38.8316 192.595 39.012 192.477C39.1925 192.359 39.4011 192.3 39.6376 192.3C39.8205 192.3 39.9651 192.33 40.0711 192.391C40.1785 192.451 40.2602 192.519 40.3163 192.596C40.3736 192.672 40.4181 192.734 40.4498 192.783H40.4864V191.4H40.9181V195.146H40.501V194.714H40.4498C40.4181 194.765 40.373 194.83 40.3144 194.908C40.2559 194.985 40.1724 195.054 40.0638 195.115C39.9553 195.174 39.8108 195.204 39.6303 195.204ZM39.6888 194.817C39.862 194.817 40.0083 194.771 40.1278 194.681C40.2474 194.59 40.3382 194.464 40.4004 194.303C40.4626 194.14 40.4937 193.953 40.4937 193.741C40.4937 193.531 40.4632 193.348 40.4022 193.19C40.3413 193.032 40.251 192.909 40.1315 192.821C40.012 192.732 39.8644 192.687 39.6888 192.687C39.5059 192.687 39.3535 192.734 39.2316 192.828C39.1108 192.921 39.02 193.047 38.959 193.207C38.8992 193.365 38.8694 193.543 38.8694 193.741C38.8694 193.941 38.8999 194.123 38.9608 194.286C39.023 194.448 39.1145 194.578 39.2352 194.674C39.3572 194.769 39.5084 194.817 39.6888 194.817ZM42.8295 195.204C42.5954 195.204 42.3887 195.145 42.2095 195.027C42.0302 194.907 41.89 194.739 41.7887 194.522C41.6875 194.304 41.6369 194.046 41.6369 193.748C41.6369 193.453 41.6875 193.197 41.7887 192.98C41.89 192.763 42.0308 192.595 42.2113 192.477C42.3918 192.359 42.6003 192.3 42.8369 192.3C43.0198 192.3 43.1643 192.33 43.2704 192.391C43.3777 192.451 43.4594 192.519 43.5155 192.596C43.5728 192.672 43.6173 192.734 43.649 192.783H43.6856V191.4H44.1173V195.146H43.7002V194.714H43.649C43.6173 194.765 43.5722 194.83 43.5137 194.908C43.4551 194.985 43.3716 195.054 43.2631 195.115C43.1545 195.174 43.01 195.204 42.8295 195.204ZM42.8881 194.817C43.0612 194.817 43.2076 194.771 43.3271 194.681C43.4466 194.59 43.5374 194.464 43.5996 194.303C43.6618 194.14 43.6929 193.953 43.6929 193.741C43.6929 193.531 43.6624 193.348 43.6015 193.19C43.5405 193.032 43.4502 192.909 43.3307 192.821C43.2112 192.732 43.0637 192.687 42.8881 192.687C42.7052 192.687 42.5527 192.734 42.4308 192.828C42.3101 192.921 42.2192 193.047 42.1582 193.207C42.0985 193.365 42.0686 193.543 42.0686 193.741C42.0686 193.941 42.0991 194.123 42.1601 194.286C42.2223 194.448 42.3137 194.578 42.4344 194.674C42.5564 194.769 42.7076 194.817 42.8881 194.817ZM46.4166 196.199V192.336H46.8336V192.783H46.8848C46.9165 192.734 46.9604 192.672 47.0165 192.596C47.0738 192.519 47.1555 192.451 47.2616 192.391C47.369 192.33 47.5141 192.3 47.697 192.3C47.9336 192.3 48.1421 192.359 48.3226 192.477C48.503 192.595 48.6439 192.763 48.7451 192.98C48.8463 193.197 48.8969 193.453 48.8969 193.748C48.8969 194.046 48.8463 194.304 48.7451 194.522C48.6439 194.739 48.5037 194.907 48.3244 195.027C48.1451 195.145 47.9384 195.204 47.7043 195.204C47.5238 195.204 47.3793 195.174 47.2708 195.115C47.1623 195.054 47.0787 194.985 47.0202 194.908C46.9617 194.83 46.9165 194.765 46.8848 194.714H46.8482V196.199H46.4166ZM46.8409 193.741C46.8409 193.953 46.872 194.14 46.9342 194.303C46.9964 194.464 47.0873 194.59 47.2068 194.681C47.3263 194.771 47.4726 194.817 47.6458 194.817C47.8262 194.817 47.9769 194.769 48.0976 194.674C48.2195 194.578 48.311 194.448 48.372 194.286C48.4341 194.123 48.4652 193.941 48.4652 193.741C48.4652 193.543 48.4348 193.365 48.3738 193.207C48.314 193.047 48.2232 192.921 48.1012 192.828C47.9805 192.734 47.8287 192.687 47.6458 192.687C47.4702 192.687 47.3226 192.732 47.2031 192.821C47.0836 192.909 46.9934 193.032 46.9324 193.19C46.8714 193.348 46.8409 193.531 46.8409 193.741ZM49.9871 193.456V195.146H49.5554V191.4H49.9871V192.775H50.0237C50.0896 192.63 50.1883 192.515 50.32 192.429C50.4529 192.343 50.6298 192.3 50.8505 192.3C51.0419 192.3 51.2096 192.338 51.3535 192.415C51.4974 192.49 51.609 192.607 51.6883 192.764C51.7687 192.92 51.809 193.119 51.809 193.361V195.146H51.3773V193.39C51.3773 193.167 51.3194 192.994 51.2035 192.872C51.0889 192.749 50.9298 192.687 50.7261 192.687C50.5846 192.687 50.4578 192.717 50.3456 192.777C50.2347 192.837 50.1469 192.924 50.0822 193.039C50.0188 193.153 49.9871 193.292 49.9871 193.456ZM53.7401 195.204C53.4865 195.204 53.2639 195.144 53.0725 195.023C52.8822 194.903 52.7335 194.734 52.6262 194.517C52.5201 194.3 52.467 194.046 52.467 193.756C52.467 193.463 52.5201 193.207 52.6262 192.989C52.7335 192.771 52.8822 192.601 53.0725 192.481C53.2639 192.36 53.4865 192.3 53.7401 192.3C53.9938 192.3 54.2157 192.36 54.406 192.481C54.5974 192.601 54.7462 192.771 54.8523 192.989C54.9596 193.207 55.0132 193.463 55.0132 193.756C55.0132 194.046 54.9596 194.3 54.8523 194.517C54.7462 194.734 54.5974 194.903 54.406 195.023C54.2157 195.144 53.9938 195.204 53.7401 195.204ZM53.7401 194.817C53.9328 194.817 54.0913 194.767 54.2157 194.668C54.3401 194.57 54.4322 194.44 54.4919 194.279C54.5517 194.118 54.5816 193.943 54.5816 193.756C54.5816 193.568 54.5517 193.393 54.4919 193.231C54.4322 193.068 54.3401 192.937 54.2157 192.837C54.0913 192.737 53.9328 192.687 53.7401 192.687C53.5475 192.687 53.3889 192.737 53.2645 192.837C53.1402 192.937 53.0481 193.068 52.9883 193.231C52.9286 193.393 52.8987 193.568 52.8987 193.756C52.8987 193.943 52.9286 194.118 52.9883 194.279C53.0481 194.44 53.1402 194.57 53.2645 194.668C53.3889 194.767 53.5475 194.817 53.7401 194.817ZM56.8941 192.336V192.702H55.4381V192.336H56.8941ZM55.8624 191.663H56.2941V194.341C56.2941 194.463 56.3118 194.554 56.3472 194.615C56.3838 194.675 56.4301 194.715 56.4862 194.736C56.5435 194.756 56.6039 194.765 56.6673 194.765C56.7148 194.765 56.7539 194.763 56.7843 194.758C56.8148 194.752 56.8392 194.747 56.8575 194.743L56.9453 195.131C56.916 195.142 56.8752 195.153 56.8228 195.164C56.7703 195.176 56.7039 195.182 56.6234 195.182C56.5014 195.182 56.3819 195.156 56.2649 195.104C56.149 195.051 56.0527 194.971 55.9758 194.864C55.9002 194.757 55.8624 194.621 55.8624 194.458V191.663ZM58.6547 195.204C58.401 195.204 58.1785 195.144 57.987 195.023C57.7968 194.903 57.648 194.734 57.5407 194.517C57.4346 194.3 57.3816 194.046 57.3816 193.756C57.3816 193.463 57.4346 193.207 57.5407 192.989C57.648 192.771 57.7968 192.601 57.987 192.481C58.1785 192.36 58.401 192.3 58.6547 192.3C58.9083 192.3 59.1303 192.36 59.3205 192.481C59.512 192.601 59.6607 192.771 59.7668 192.989C59.8741 193.207 59.9278 193.463 59.9278 193.756C59.9278 194.046 59.8741 194.3 59.7668 194.517C59.6607 194.734 59.512 194.903 59.3205 195.023C59.1303 195.144 58.9083 195.204 58.6547 195.204ZM58.6547 194.817C58.8474 194.817 59.0059 194.767 59.1303 194.668C59.2546 194.57 59.3467 194.44 59.4065 194.279C59.4662 194.118 59.4961 193.943 59.4961 193.756C59.4961 193.568 59.4662 193.393 59.4065 193.231C59.3467 193.068 59.2546 192.937 59.1303 192.837C59.0059 192.737 58.8474 192.687 58.6547 192.687C58.462 192.687 58.3035 192.737 58.1791 192.837C58.0547 192.937 57.9626 193.068 57.9029 193.231C57.8431 193.393 57.8133 193.568 57.8133 193.756C57.8133 193.943 57.8431 194.118 57.9029 194.279C57.9626 194.44 58.0547 194.57 58.1791 194.668C58.3035 194.767 58.462 194.817 58.6547 194.817ZM62.5769 192.965L62.1891 193.075C62.1647 193.011 62.1287 192.948 62.0812 192.887C62.0348 192.825 61.9714 192.773 61.8909 192.733C61.8105 192.693 61.7074 192.673 61.5818 192.673C61.4099 192.673 61.2666 192.712 61.152 192.792C61.0386 192.87 60.9818 192.969 60.9818 193.09C60.9818 193.197 61.0209 193.282 61.0989 193.344C61.177 193.406 61.2989 193.458 61.4648 193.5L61.8818 193.602C62.133 193.663 62.3202 193.756 62.4434 193.882C62.5665 194.006 62.6281 194.167 62.6281 194.363C62.6281 194.524 62.5818 194.668 62.4891 194.795C62.3976 194.921 62.2696 195.021 62.105 195.095C61.9403 195.168 61.7489 195.204 61.5306 195.204C61.244 195.204 61.0068 195.142 60.8191 195.018C60.6313 194.893 60.5124 194.712 60.4624 194.473L60.8721 194.37C60.9111 194.521 60.9849 194.635 61.0934 194.71C61.2032 194.786 61.3465 194.824 61.5233 194.824C61.7245 194.824 61.8842 194.781 62.0025 194.696C62.122 194.609 62.1818 194.506 62.1818 194.385C62.1818 194.287 62.1476 194.206 62.0794 194.14C62.0111 194.073 61.9062 194.023 61.7647 193.99L61.2965 193.88C61.0392 193.819 60.8501 193.725 60.7294 193.596C60.6099 193.467 60.5502 193.306 60.5502 193.112C60.5502 192.953 60.5947 192.813 60.6837 192.691C60.7739 192.569 60.8965 192.473 61.0514 192.404C61.2074 192.334 61.3843 192.3 61.5818 192.3C61.8599 192.3 62.0781 192.361 62.2367 192.483C62.3964 192.604 62.5098 192.765 62.5769 192.965ZM67.2728 194.89V192.475H67.6826V194.89H67.2728ZM66.2705 193.887V193.478H68.685V193.887H66.2705Z" fill="#012232" />
</g>
<g id="Next feature  &#226;&#134;&#146;">
<rect x="27.3182" y="209.878" width="53.1817" height="15.635" rx="7.8175" fill="#D1E6C2" />
<rect x="27.3182" y="209.878" width="53.1817" height="15.635" rx="7.8175" stroke="#222A29" stroke-width="0.234135" />
<path id="Next feature &#226;&#134;&#146;" d="M38.1176 215.698V219.444H37.6786L35.6372 216.502H35.6006V219.444H35.147V215.698H35.586L37.6347 218.646H37.6713V215.698H38.1176ZM40.1448 219.502C39.874 219.502 39.6405 219.443 39.4442 219.323C39.2491 219.202 39.0985 219.034 38.9924 218.818C38.8875 218.601 38.8351 218.349 38.8351 218.061C38.8351 217.773 38.8875 217.519 38.9924 217.3C39.0985 217.079 39.246 216.907 39.435 216.784C39.6253 216.66 39.8472 216.598 40.1009 216.598C40.2472 216.598 40.3917 216.622 40.5344 216.671C40.6771 216.72 40.8069 216.799 40.924 216.909C41.0411 217.017 41.1344 217.161 41.2039 217.34C41.2734 217.519 41.3081 217.74 41.3081 218.002V218.185H39.1424V217.812H40.8691C40.8691 217.654 40.8374 217.512 40.774 217.388C40.7118 217.263 40.6228 217.165 40.5069 217.093C40.3923 217.021 40.257 216.985 40.1009 216.985C39.9289 216.985 39.7802 217.028 39.6545 217.113C39.5302 217.198 39.4344 217.307 39.3674 217.443C39.3003 217.578 39.2668 217.723 39.2668 217.878V218.127C39.2668 218.339 39.3033 218.519 39.3765 218.666C39.4509 218.813 39.5539 218.924 39.6856 219.001C39.8173 219.077 39.9704 219.115 40.1448 219.115C40.2582 219.115 40.3606 219.099 40.4521 219.067C40.5447 219.034 40.6246 218.985 40.6917 218.921C40.7588 218.855 40.8106 218.773 40.8472 218.676L41.2642 218.793C41.2203 218.934 41.1465 219.058 41.0429 219.166C40.9392 219.272 40.8112 219.355 40.6588 219.415C40.5063 219.473 40.335 219.502 40.1448 219.502ZM42.2113 216.634L42.8844 217.783L43.5576 216.634H44.0551L43.1478 218.039L44.0551 219.444H43.5576L42.8844 218.354L42.2113 219.444H41.7137L42.6064 218.039L41.7137 216.634H42.2113ZM45.893 216.634V217H44.4369V216.634H45.893ZM44.8613 215.961H45.293V218.639C45.293 218.761 45.3107 218.852 45.346 218.913C45.3826 218.973 45.429 219.013 45.4851 219.034C45.5424 219.054 45.6027 219.063 45.6661 219.063C45.7137 219.063 45.7527 219.061 45.7832 219.056C45.8137 219.05 45.8381 219.045 45.8564 219.041L45.9442 219.429C45.9149 219.44 45.8741 219.451 45.8216 219.462C45.7692 219.474 45.7027 219.48 45.6222 219.48C45.5003 219.48 45.3808 219.454 45.2637 219.402C45.1479 219.349 45.0515 219.269 44.9747 219.162C44.8991 219.055 44.8613 218.919 44.8613 218.756V215.961ZM49.2422 216.634V217H47.7276V216.634H49.2422ZM48.1813 219.444V216.246C48.1813 216.085 48.2191 215.951 48.2947 215.844C48.3703 215.737 48.4684 215.656 48.5892 215.603C48.7099 215.549 48.8373 215.522 48.9715 215.522C49.0776 215.522 49.1641 215.531 49.2312 215.548C49.2983 215.565 49.3483 215.581 49.3812 215.595L49.2568 215.968C49.2349 215.961 49.2044 215.952 49.1654 215.941C49.1276 215.93 49.0776 215.924 49.0154 215.924C48.8727 215.924 48.7696 215.96 48.7062 216.032C48.644 216.104 48.6129 216.21 48.6129 216.349V219.444H48.1813ZM50.9095 219.502C50.6388 219.502 50.4052 219.443 50.2089 219.323C50.0138 219.202 49.8632 219.034 49.7571 218.818C49.6522 218.601 49.5998 218.349 49.5998 218.061C49.5998 217.773 49.6522 217.519 49.7571 217.3C49.8632 217.079 50.0107 216.907 50.1998 216.784C50.39 216.66 50.6119 216.598 50.8656 216.598C51.0119 216.598 51.1564 216.622 51.2991 216.671C51.4418 216.72 51.5716 216.799 51.6887 216.909C51.8058 217.017 51.8991 217.161 51.9686 217.34C52.0381 217.519 52.0728 217.74 52.0728 218.002V218.185H49.9071V217.812H51.6338C51.6338 217.654 51.6021 217.512 51.5387 217.388C51.4765 217.263 51.3875 217.165 51.2717 217.093C51.157 217.021 51.0217 216.985 50.8656 216.985C50.6936 216.985 50.5449 217.028 50.4193 217.113C50.2949 217.198 50.1991 217.307 50.1321 217.443C50.065 217.578 50.0315 217.723 50.0315 217.878V218.127C50.0315 218.339 50.0681 218.519 50.1412 218.666C50.2156 218.813 50.3187 218.924 50.4504 219.001C50.5821 219.077 50.7351 219.115 50.9095 219.115C51.0229 219.115 51.1253 219.099 51.2168 219.067C51.3095 219.034 51.3893 218.985 51.4564 218.921C51.5235 218.855 51.5753 218.773 51.6119 218.676L52.0289 218.793C51.985 218.934 51.9113 219.058 51.8076 219.166C51.704 219.272 51.5759 219.355 51.4235 219.415C51.271 219.473 51.0997 219.502 50.9095 219.502ZM53.5563 219.51C53.3783 219.51 53.2167 219.476 53.0716 219.409C52.9265 219.341 52.8112 219.243 52.7259 219.115C52.6405 218.985 52.5978 218.829 52.5978 218.646C52.5978 218.485 52.6295 218.355 52.6929 218.255C52.7563 218.154 52.8411 218.074 52.9472 218.017C53.0533 217.96 53.1703 217.917 53.2984 217.889C53.4276 217.86 53.5575 217.837 53.688 217.819C53.8587 217.798 53.9971 217.781 54.1032 217.77C54.2105 217.758 54.2886 217.738 54.3374 217.71C54.3874 217.682 54.4124 217.633 54.4124 217.563V217.549C54.4124 217.368 54.363 217.228 54.2642 217.128C54.1666 217.028 54.0185 216.978 53.8197 216.978C53.6136 216.978 53.452 217.023 53.335 217.113C53.2179 217.204 53.1356 217.3 53.088 217.402L52.6783 217.256C52.7515 217.085 52.849 216.952 52.971 216.857C53.0941 216.761 53.2283 216.694 53.3734 216.656C53.5197 216.617 53.6636 216.598 53.8051 216.598C53.8953 216.598 53.999 216.609 54.116 216.631C54.2343 216.651 54.3483 216.695 54.4581 216.76C54.5691 216.826 54.6611 216.926 54.7343 217.059C54.8075 217.191 54.844 217.369 54.844 217.593V219.444H54.4124V219.063H54.3904C54.3611 219.124 54.3124 219.19 54.2441 219.259C54.1758 219.329 54.0849 219.388 53.9715 219.436C53.8581 219.485 53.7197 219.51 53.5563 219.51ZM53.6222 219.122C53.7929 219.122 53.9368 219.088 54.0538 219.021C54.1721 218.954 54.2611 218.868 54.3209 218.762C54.3819 218.655 54.4124 218.544 54.4124 218.427V218.032C54.3941 218.054 54.3538 218.074 54.2916 218.092C54.2307 218.109 54.1599 218.124 54.0794 218.138C54.0002 218.15 53.9227 218.161 53.8471 218.171C53.7728 218.179 53.7124 218.187 53.6661 218.193C53.5539 218.207 53.449 218.231 53.3514 218.264C53.2551 218.296 53.1771 218.344 53.1173 218.408C53.0588 218.472 53.0295 218.558 53.0295 218.668C53.0295 218.818 53.085 218.932 53.196 219.008C53.3081 219.084 53.4502 219.122 53.6222 219.122ZM56.8539 216.634V217H55.3978V216.634H56.8539ZM55.8222 215.961H56.2539V218.639C56.2539 218.761 56.2716 218.852 56.3069 218.913C56.3435 218.973 56.3899 219.013 56.4459 219.034C56.5033 219.054 56.5636 219.063 56.627 219.063C56.6746 219.063 56.7136 219.061 56.7441 219.056C56.7746 219.05 56.799 219.045 56.8173 219.041L56.9051 219.429C56.8758 219.44 56.835 219.451 56.7825 219.462C56.7301 219.474 56.6636 219.48 56.5831 219.48C56.4612 219.48 56.3417 219.454 56.2246 219.402C56.1088 219.349 56.0124 219.269 55.9356 219.162C55.86 219.055 55.8222 218.919 55.8222 218.756V215.961ZM59.2739 218.295V216.634H59.7055V219.444H59.2739V218.968H59.2446C59.1787 219.111 59.0763 219.232 58.9373 219.332C58.7983 219.431 58.6227 219.48 58.4105 219.48C58.2349 219.48 58.0788 219.442 57.9422 219.365C57.8056 219.287 57.6983 219.17 57.6203 219.014C57.5422 218.857 57.5032 218.658 57.5032 218.419V216.634H57.9349V218.39C57.9349 218.595 57.9922 218.758 58.1068 218.88C58.2227 219.002 58.3702 219.063 58.5495 219.063C58.6568 219.063 58.766 219.036 58.8769 218.981C58.9891 218.926 59.083 218.842 59.1586 218.729C59.2354 218.615 59.2739 218.471 59.2739 218.295ZM60.4962 219.444V216.634H60.9133V217.059H60.9425C60.9937 216.92 61.0864 216.807 61.2206 216.72C61.3547 216.634 61.5059 216.59 61.6742 216.59C61.7059 216.59 61.7455 216.591 61.7931 216.592C61.8406 216.593 61.8766 216.595 61.901 216.598V217.037C61.8864 217.033 61.8528 217.027 61.8004 217.02C61.7492 217.012 61.6949 217.007 61.6376 217.007C61.501 217.007 61.3791 217.036 61.2718 217.093C61.1657 217.149 61.0815 217.227 61.0193 217.327C60.9584 217.426 60.9279 217.539 60.9279 217.666V219.444H60.4962ZM63.5052 219.502C63.2345 219.502 63.001 219.443 62.8046 219.323C62.6095 219.202 62.4589 219.034 62.3528 218.818C62.2479 218.601 62.1955 218.349 62.1955 218.061C62.1955 217.773 62.2479 217.519 62.3528 217.3C62.4589 217.079 62.6065 216.907 62.7955 216.784C62.9857 216.66 63.2077 216.598 63.4613 216.598C63.6076 216.598 63.7521 216.622 63.8948 216.671C64.0375 216.72 64.1674 216.799 64.2844 216.909C64.4015 217.017 64.4948 217.161 64.5643 217.34C64.6338 217.519 64.6686 217.74 64.6686 218.002V218.185H62.5028V217.812H64.2296C64.2296 217.654 64.1978 217.512 64.1344 217.388C64.0722 217.263 63.9832 217.165 63.8674 217.093C63.7527 217.021 63.6174 216.985 63.4613 216.985C63.2894 216.985 63.1406 217.028 63.015 217.113C62.8906 217.198 62.7949 217.307 62.7278 217.443C62.6607 217.578 62.6272 217.723 62.6272 217.878V218.127C62.6272 218.339 62.6638 218.519 62.7369 218.666C62.8113 218.813 62.9144 218.924 63.0461 219.001C63.1778 219.077 63.3308 219.115 63.5052 219.115C63.6186 219.115 63.721 219.099 63.8125 219.067C63.9052 219.034 63.9851 218.985 64.0521 218.921C64.1192 218.855 64.171 218.773 64.2076 218.676L64.6247 218.793C64.5808 218.934 64.507 219.058 64.4033 219.166C64.2997 219.272 64.1716 219.355 64.0192 219.415C63.8668 219.473 63.6954 219.502 63.5052 219.502ZM70.5969 219.444L70.3152 219.166L71.4749 218.006H68.4714V217.604H71.4749L70.3152 216.448L70.5969 216.166L72.2359 217.805L70.5969 219.444Z" fill="#012232" />
</g>
</g>
<defs>
<filter id="filter0_di_0_1" x="-0.000844955" y="-2.86102e-05" width="163.043" height="259.927" filterUnits="userSpaceOnUse" color-interpolation-filters="sRGB">
<feFlood flood-opacity="0" result="BackgroundImageFix" />
<feColorMatrix in="SourceAlpha" type="matrix" values="0 0 0 0 0 0 0 0 0 0 0 0 0 0 0 0 0 0 127 0" result="hardAlpha" />
<feMorphology radius="2.95625" operator="erode" in="SourceAlpha" result="effect1_dropShadow_0_1" />
<feOffset dy="7.09499" />
<feGaussianBlur stdDeviation="9.45999" />
<feColorMatrix type="matrix" values="0 0 0 0 0.388235 0 0 0 0 0.490196 0 0 0 0 0.619608 0 0 0 0.16 0" />
<feBlend mode="normal" in2="BackgroundImageFix" result="effect1_dropShadow_0_1" />
<feBlend mode="normal" in="SourceGraphic" in2="BackgroundImageFix" result="shape" />
<feColorMatrix in="SourceAlpha" type="matrix" values="0 0 0 0 0 0 0 0 0 0 0 0 0 0 0 0 0 0 127 0" result="hardAlpha" />
<feOffset dy="0.768624" />
<feGaussianBlur stdDeviation="2.365" />
<feComposite in2="hardAlpha" operator="arithmetic" k2="-1" k3="1" />
<feColorMatrix type="matrix" values="0 0 0 0 1 0 0 0 0 1 0 0 0 0 1 0 0 0 0.72 0" />
<feBlend mode="screen" in2="shape" result="effect2_innerShadow_0_1" />
<feBlend mode="normal" in="effect2_innerShadow_0_1" in2="effect1_dropShadow_0_1" result="effect2_innerShadow_0_1" />
</filter>
<clipPath id="clip1_0_1">
<rect width="108.639" height="15.8691" fill="white" transform="translate(27.2012 66.0875)" />
</clipPath>
<clipPath id="clip2_0_1">
<rect width="108.639" height="15.8691" fill="white" transform="translate(27.2012 90.3854)" />
</clipPath>
</defs>
</svg>