<svg xmlns="http://www.w3.org/2000/svg" width="34" height="34" viewBox="0 0 34 34">
<svg viewBox="0 0 28.33 27.02" preserveAspectRatio="none" xmlns="http://www.w3.org/2000/svg" x="3.00000" y="3.50000" width="28.00000" height="27.00000">
          <defs><linearGradient id="_lc3mxf0" gradientUnits="objectBoundingBox" x1="0" y1="0" x2="1" y2="1"><stop offset="0" stop-color="#e3cd91"/><stop offset="0.24" stop-color="#f8d9ce"/><stop offset="0.48" stop-color="#f7d9ee"/><stop offset="0.73" stop-color="#cca1e3"/><stop offset="1" stop-color="#de7c8e"/></linearGradient></defs>
          <path d="M27.299 24.834C27.299 24.834 27.002 24.834 27.002 24.834C27.002 24.834 27.002 13.501 27.002 13.501C27.002 12.178 26.476 10.910 25.541 9.975C24.606 9.040 23.338 8.514 22.015 8.514C22.015 8.514 20.457 8.514 20.457 8.514C20.457 8.514 20.457 4.987 20.457 4.987C20.457 4.331 20.327 3.681 20.076 3.075C19.824 2.469 19.456 1.919 18.991 1.456C18.527 0.992 17.975 0.625 17.369 0.376C16.762 0.126 16.112 -0.002 15.456 0.000C15.456 0.000 5.639 0.000 5.639 0.000C4.983 -0.002 4.332 0.126 3.726 0.376C3.119 0.625 2.568 0.992 2.103 1.456C1.639 1.919 1.270 2.469 1.019 3.075C0.767 3.681 0.638 4.331 0.638 4.987C0.638 4.987 0.638 24.990 0.638 24.990C0.448 25.069 0.285 25.203 0.172 25.374C0.058 25.546 -0.002 25.748 0.000 25.953C-0.002 26.093 0.025 26.232 0.077 26.362C0.130 26.492 0.208 26.610 0.307 26.709C0.406 26.808 0.524 26.886 0.654 26.939C0.784 26.992 0.923 27.018 1.063 27.016C1.063 27.016 27.271 27.016 27.271 27.016C27.553 27.016 27.823 26.904 28.022 26.705C28.222 26.505 28.333 26.235 28.333 25.953C28.333 25.672 28.222 25.401 28.022 25.202C27.823 25.003 27.553 24.891 27.271 24.891C27.271 24.891 27.299 24.834 27.299 24.834ZM5.582 11.489C5.582 11.207 5.694 10.937 5.893 10.738C6.092 10.539 6.363 10.427 6.644 10.427C6.644 10.427 14.507 10.427 14.507 10.427C14.789 10.427 15.059 10.539 15.258 10.738C15.457 10.937 15.569 11.207 15.569 11.489C15.569 11.771 15.457 12.041 15.258 12.240C15.059 12.440 14.789 12.552 14.507 12.552C14.507 12.552 6.644 12.552 6.644 12.552C6.364 12.548 6.096 12.435 5.897 12.237C5.699 12.038 5.586 11.770 5.582 11.489ZM6.644 5.185C6.644 5.185 14.507 5.185 14.507 5.185C14.789 5.185 15.059 5.297 15.258 5.496C15.457 5.695 15.569 5.966 15.569 6.248C15.569 6.529 15.457 6.800 15.258 6.999C15.059 7.198 14.789 7.310 14.507 7.310C14.507 7.310 6.644 7.310 6.644 7.310C6.363 7.310 6.092 7.198 5.893 6.999C5.694 6.800 5.582 6.529 5.582 6.248C5.582 5.966 5.694 5.695 5.893 5.496C6.092 5.297 6.363 5.185 6.644 5.185ZM8.373 24.834C8.373 24.834 8.373 18.686 8.373 18.686C8.376 18.446 8.473 18.218 8.642 18.048C8.726 17.966 8.826 17.901 8.935 17.857C9.044 17.813 9.162 17.792 9.279 17.793C9.279 17.793 11.900 17.793 11.900 17.793C12.018 17.792 12.135 17.813 12.244 17.857C12.354 17.901 12.454 17.966 12.538 18.048C12.708 18.217 12.805 18.446 12.807 18.686C12.807 18.686 12.807 24.834 12.807 24.834C12.807 24.834 8.373 24.834 8.373 24.834ZM24.905 24.834C24.905 24.834 20.485 24.834 20.485 24.834C20.485 24.834 20.485 10.583 20.485 10.583C20.485 10.583 22.044 10.583 22.044 10.583C22.795 10.583 23.516 10.881 24.047 11.412C24.578 11.944 24.877 12.664 24.877 13.416C24.877 13.416 24.905 24.834 24.905 24.834Z" fill-rule="nonzero" fill="url(#_lc3mxf0)" />
        </svg>
</svg>
