<svg width="109" height="34" viewBox="0 0 109 34" fill="none" xmlns="http://www.w3.org/2000/svg">
<g clip-path="url(#clip0_102_628)">
<path fill-rule="evenodd" clip-rule="evenodd" d="M8.43069 33.7864H10.9604V20.2718H8.43069V33.7864ZM17.704 33.5837H19.9698V25.0568L29.5071 33.7864V20.4746H27.2476V28.8557L17.704 20.2718V33.5837ZM34.6796 30.3106C35.9128 31.2714 37.393 31.8268 38.9799 31.8268C40.5257 31.8268 41.61 31.2947 41.61 30.1195C41.61 29.0954 40.9184 28.6942 39.7074 28.2454L37.7467 27.5644C35.9392 26.9225 34.5645 25.9849 34.5645 23.83C34.5645 21.5251 36.6455 20.2718 39.1341 20.2718C40.6587 20.2718 42.0482 20.6551 43.1335 21.334V23.6199C42.0049 22.7858 40.7696 22.2114 39.1827 22.2114C37.8164 22.2114 36.7954 22.7214 36.7954 23.7846C36.7954 24.7454 37.4363 25.1297 38.565 25.5161L40.7495 26.2827C42.8664 27.027 43.8378 28.181 43.8378 30.0794C43.8378 32.4677 41.7367 33.7864 38.9799 33.7864C37.1681 33.7864 35.6277 33.2796 34.6796 32.6398V30.3106ZM49.7398 33.7864H52.2686V20.2718H49.7398V33.7864ZM64.1318 31.7413C66.9825 31.7413 68.5061 29.9126 68.5061 27.026C68.5061 24.1182 66.9815 22.2959 64.1318 22.2959H61.3127V31.7413H64.1318ZM59.011 20.2718H64.2163C68.2231 20.2718 70.8141 22.9114 70.8141 27.026C70.8141 31.1437 68.2231 33.7864 64.2163 33.7864H59.011V20.2718ZM83.4608 20.2718V22.2959H77.3402V25.5478H82.8294V27.5486H77.3391V31.7413H83.4608V33.7864H75.03V20.2718H83.4608ZM92.4374 26.3914H94.9471C96.4327 26.3914 97.2699 25.5763 97.2699 24.323C97.2699 23.0698 96.4327 22.2536 94.9471 22.2536H92.4374V26.3914ZM92.4374 28.3025V33.7864H90.2043V20.2718H94.9893C97.7176 20.2718 99.4829 21.6771 99.4829 24.323C99.4829 26.5857 98.5031 27.8854 96.4158 28.219L101.164 33.7864H98.6235L94.0264 28.3035H92.4385L92.4374 28.3025ZM7.54696 6.95789C8.53627 6.59574 9.30702 5.5093 9.30702 4.0153C9.30702 1.52567 7.54696 0.235449 4.73107 0.235449H0.000976562V14.1333H5.1703C7.98618 14.1333 9.74624 12.7523 9.74624 10.1496C9.74624 8.67783 8.8224 7.38761 7.54696 6.95789ZM2.22243 6.07522V2.27319H4.70996C6.27258 2.27319 7.10774 2.83911 7.10774 4.1515C7.10774 5.4639 6.27152 6.07522 4.70996 6.07522H2.22243ZM2.22243 8.02216H5.12595C6.66746 8.02216 7.50261 8.7908 7.50261 10.0588C7.50261 11.3037 6.6664 12.0966 5.12701 12.0966H2.22349V8.0211L2.22243 8.02216ZM20.0669 14.3592C23.3009 14.3592 25.4791 12.4123 25.4791 8.61025V0.235449H23.1911V8.33785C23.1911 11.0091 22.091 12.255 20.0669 12.255C18.0429 12.255 16.9438 11.0091 16.9438 8.33785V0.235449H14.6558V8.58703C14.6558 12.4123 16.8551 14.3592 20.0669 14.3592ZM30.8659 13.1366C31.8119 13.8165 33.3524 14.3592 35.1557 14.3592C37.9062 14.3592 39.9956 12.955 39.9956 10.421C39.9956 8.40648 39.0285 7.18383 36.9158 6.39197L34.7387 5.57687C33.6163 5.17038 32.9786 4.76283 32.9786 3.74396C32.9786 2.61211 33.9901 2.06942 35.3542 2.06942C36.938 2.06942 38.1701 2.67968 39.2925 3.56341V1.14029C38.2145 0.417051 36.8282 0.00950243 35.3099 0.00950243C32.8245 0.00950243 30.7561 1.34512 30.7561 3.78936C30.7561 6.07522 32.1202 7.07086 33.9236 7.74976L35.8821 8.47405C37.0921 8.94917 37.7742 9.37995 37.7742 10.4664C37.7742 11.7112 36.6962 12.2771 35.1557 12.2771C33.572 12.2771 32.0981 11.688 30.8659 10.6702V13.1366ZM48.1709 0.235449H45.884V14.1322H48.1709V0.235449ZM54.698 14.1153H56.9026V5.0743L66.1812 14.3307V0.214333H63.9829V9.10121L54.698 0V14.1153ZM80.4781 0.238616V2.31965H74.538V5.6645H79.8647V7.72231H74.538V12.0332H80.4781V14.1364H72.2954V0.238616H80.4781ZM85.8047 13.1271C86.7507 13.807 88.2901 14.3497 90.0945 14.3497C92.8439 14.3497 94.9344 12.9465 94.9344 10.4115C94.9344 8.39698 93.9663 7.17539 91.8546 6.38246L89.6764 5.56842C88.5541 5.16087 87.9164 4.75332 87.9164 3.73445C87.9164 2.60261 88.9279 2.05992 90.292 2.05992C91.8757 2.05992 93.1079 2.67124 94.2302 3.55391V1.13184C93.1522 0.407549 91.7659 0 90.2476 0C87.7622 0 85.6939 1.33562 85.6939 3.77985C85.6939 6.06572 87.058 7.06136 88.8613 7.74025L90.8199 8.46455C92.0299 8.93967 92.7119 9.37045 92.7119 10.4569C92.7119 11.7017 91.635 12.2676 90.0935 12.2676C88.5098 12.2676 87.0358 11.6795 85.8047 10.6607V13.1271ZM99.6213 13.1271C100.567 13.807 102.108 14.3497 103.911 14.3497C106.661 14.3497 108.751 12.9465 108.751 10.4115C108.751 8.39698 107.783 7.17539 105.671 6.38246L103.493 5.56842C102.372 5.16087 101.733 4.75332 101.733 3.73445C101.733 2.60261 102.745 2.05992 104.109 2.05992C105.692 2.05992 106.925 2.67124 108.047 3.55391V1.13184C106.97 0.407549 105.583 0 104.065 0C101.579 0 99.5115 1.33562 99.5115 3.77985C99.5115 6.06572 100.876 7.06136 102.679 7.74025L104.637 8.46455C105.847 8.93967 106.53 9.37045 106.53 10.4569C106.53 11.7017 105.452 12.2676 103.911 12.2676C102.327 12.2676 100.853 11.6795 99.6213 10.6607V13.1271Z" fill="#121111"/>
</g>
<defs>
<clipPath id="clip0_102_628">
<rect width="108.75" height="33.7864" fill="white"/>
</clipPath>
</defs>
</svg>
